<?xml version="1.0" encoding="UTF-8"?>
<svg width="127px" height="60px" viewBox="0 0 127 60" version="1.1" xmlns="http://www.w3.org/2000/svg" xmlns:xlink="http://www.w3.org/1999/xlink">
    <!-- Generator: Sketch 47.1 (45422) - http://www.bohemiancoding.com/sketch -->
    <title>LOGO</title>
    <desc>Created with Sketch.</desc>
    <defs></defs>
    <g id="Page-1" stroke="none" stroke-width="1" fill="none" fill-rule="evenodd">
        <g id="Version2" transform="translate(-537.000000, -9.000000)">
            <g id="HEADER" transform="translate(15.000000, 0.000000)">
                <g id="LOGO" transform="translate(522.000000, 9.000000)">
                    <path d="M23.7278487,52.5037037 L23.7278487,53.3333333 L18.7453138,53.3333333 L18.7453138,45.9703704 L23.6348138,45.9703704 L23.6348138,46.8 L19.6756626,46.8 L19.6756626,49.1851852 L23.1179533,49.1851852 L23.1179533,49.962963 L19.6756626,49.962963 L19.6756626,52.5037037 L23.7278487,52.5037037 Z M25.0584513,45.9703704 L27.2809513,49.8074074 L29.5241257,45.9703704 L30.5371722,45.9703704 L27.7461257,50.6474074 L27.7461257,53.3333333 L26.8157769,53.3333333 L26.8157769,50.6266667 L24.0350676,45.9703704 L25.0584513,45.9703704 Z M36.3127748,52.5037037 L36.3127748,53.3333333 L31.33024,53.3333333 L31.33024,45.9703704 L36.21974,45.9703704 L36.21974,46.8 L32.2605888,46.8 L32.2605888,49.1851852 L35.7028795,49.1851852 L35.7028795,49.962963 L32.2605888,49.962963 L32.2605888,52.5037037 L36.3127748,52.5037037 Z M42.9980519,51.4355556 C42.9980519,51.7190138 42.9411978,51.9782704 42.8274879,52.2133333 C42.713778,52.4483962 42.5587215,52.6488881 42.3623135,52.8148148 C42.1659055,52.9807416 41.9384892,53.1086415 41.6800577,53.1985185 C41.4216262,53.2883955 41.1442472,53.3333333 40.8479123,53.3333333 L37.3642728,53.3333333 L37.3642728,45.9703704 L41.0133077,45.9703704 C41.2682935,45.9703704 41.4991555,46.0256785 41.7059007,46.1362963 C41.9126459,46.2469141 42.0883767,46.3903695 42.2330984,46.5666667 C42.37782,46.7429638 42.4898054,46.9434557 42.5690577,47.1681481 C42.64831,47.3928406 42.6879356,47.6192581 42.6879356,47.8474074 C42.6879356,48.213829 42.5966245,48.552591 42.4139995,48.8637037 C42.2313746,49.1748164 41.9712241,49.406419 41.6335402,49.5585185 C42.0539222,49.6829636 42.3864324,49.9128378 42.6310809,50.2481481 C42.8757295,50.5834585 42.9980519,50.979257 42.9980519,51.4355556 Z M42.0573658,51.2696296 C42.0573658,51.1037029 42.0280774,50.9429637 41.9694995,50.7874074 C41.9109217,50.6318511 41.8316706,50.4953092 41.7317437,50.3777778 C41.6318169,50.2602463 41.5129402,50.1669139 41.37511,50.0977778 C41.2372799,50.0286416 41.085669,49.9940741 40.9202728,49.9940741 L38.2946216,49.9940741 L38.2946216,52.5244444 L40.8479123,52.5244444 C41.0202,52.5244444 41.1787023,52.4898769 41.323424,52.4207407 C41.4681456,52.3516046 41.5956366,52.2600006 41.7059007,52.1459259 C41.8161648,52.0318513 41.9023074,51.8987662 41.9643309,51.7466667 C42.0263545,51.5945671 42.0573658,51.4355564 42.0573658,51.2696296 Z M38.2946216,46.7792593 L38.2946216,49.237037 L40.6308309,49.237037 C40.7962271,49.237037 40.947838,49.2041979 41.0856682,49.1385185 C41.2234983,49.0728392 41.342375,48.9846919 41.4423019,48.8740741 C41.5422287,48.7634562 41.6214799,48.6338279 41.6800577,48.4851852 C41.7386355,48.3365425 41.767924,48.1792601 41.767924,48.0133333 C41.767924,47.840493 41.7403584,47.6780255 41.6852263,47.5259259 C41.6300942,47.3738264 41.5560116,47.2424697 41.4629763,47.1318519 C41.3699409,47.021234 41.2562328,46.9348151 41.1218484,46.8725926 C40.987464,46.8103701 40.8444674,46.7792593 40.6928542,46.7792593 L38.2946216,46.7792593 Z M44.0805615,53.3333333 L44.0805615,45.9703704 L47.2230731,45.9703704 C47.5469739,45.9703704 47.8450272,46.0377771 48.1172417,46.1725926 C48.3894562,46.3074081 48.623764,46.4871594 48.8201719,46.7118519 C49.0165799,46.9365443 49.1699136,47.1888875 49.2801777,47.4688889 C49.3904419,47.7488903 49.4455731,48.0340726 49.4455731,48.3244444 C49.4455731,48.5802482 49.4093932,48.8274062 49.3370324,49.0659259 C49.2646716,49.3044456 49.1613005,49.5204929 49.0269161,49.7140741 C48.8925317,49.9076553 48.7305837,50.0735796 48.5410673,50.2118519 C48.3515508,50.3501241 48.1396402,50.4503701 47.9053289,50.5125926 L49.6833289,53.3333333 L48.6289336,53.3333333 L46.9543057,50.6888889 L45.0109103,50.6888889 L45.0109103,53.3333333 L44.0805615,53.3333333 Z M45.0109103,49.8592593 L47.2334103,49.8592593 C47.4263725,49.8592593 47.6003805,49.8177782 47.7554394,49.7348148 C47.9104983,49.6518514 48.0431578,49.5395069 48.1534219,49.3977778 C48.2636861,49.2560487 48.3498286,49.0918528 48.4118522,48.9051852 C48.4738757,48.7185176 48.5048871,48.5249393 48.5048871,48.3244444 C48.5048871,48.117036 48.4687072,47.9217293 48.3963464,47.7385185 C48.3239855,47.5553077 48.2275059,47.3928402 48.1069045,47.2511111 C47.9863031,47.109382 47.8450293,46.9987658 47.6830789,46.9192593 C47.5211285,46.8397527 47.3505662,46.8 47.1713871,46.8 L45.0109103,46.8 L45.0109103,49.8592593 Z M53.6292455,53.3851852 C53.1123824,53.3851852 52.6420441,53.2797541 52.2182164,53.0688889 C51.7943887,52.8580236 51.4308672,52.5780264 51.1276408,52.2288889 C50.8244145,51.8797513 50.5901068,51.4804961 50.4247106,51.0311111 C50.2593144,50.5817261 50.1766176,50.1219777 50.1766176,49.6518519 C50.1766176,49.1609852 50.264483,48.6908664 50.4402164,48.2414815 C50.6159499,47.7920965 50.8588718,47.3945696 51.1689897,47.0488889 C51.4791075,46.7032081 51.8460748,46.4283961 52.2699025,46.2244444 C52.6937302,46.0204928 53.1537314,45.9185185 53.6499199,45.9185185 C54.166783,45.9185185 54.6353984,46.0274063 55.0557804,46.2451852 C55.4761623,46.4629641 55.837961,46.7481464 56.1411873,47.1007407 C56.4444137,47.4533351 56.6787214,47.8525904 56.8441176,48.2985185 C57.0095138,48.7444467 57.0922106,49.19901 57.0922106,49.6622222 C57.0922106,50.1530889 57.0043452,50.6232076 56.8286118,51.0725926 C56.6528783,51.5219776 56.4116792,51.9177761 56.1050071,52.26 C55.798335,52.6022239 55.4330906,52.8753076 55.0092629,53.0792593 C54.5854352,53.2832109 54.125434,53.3851852 53.6292455,53.3851852 Z M51.1173036,49.6518519 C51.1173036,50.0251871 51.1776034,50.386418 51.2982048,50.7355556 C51.4188062,51.0846931 51.5893684,51.3940727 51.8098966,51.6637037 C52.0304249,51.9333347 52.2957439,52.1476535 52.6058618,52.3066667 C52.9159796,52.4656798 53.2605498,52.5451852 53.6395827,52.5451852 C54.0323986,52.5451852 54.3838602,52.4604947 54.693978,52.2911111 C55.0040959,52.1217275 55.2676921,51.9004952 55.4847746,51.6274074 C55.701857,51.3543196 55.8672507,51.04494 55.9809606,50.6992593 C56.0946705,50.3535785 56.1515246,50.0044462 56.1515246,49.6518519 C56.1515246,49.2785167 56.0912248,48.9172857 55.9706234,48.5681481 C55.850022,48.2190106 55.6777369,47.9113594 55.4537629,47.6451852 C55.2297889,47.379011 54.9644699,47.1664205 54.6577978,47.0074074 C54.3511257,46.8483943 54.0117241,46.7688889 53.6395827,46.7688889 C53.2467668,46.7688889 52.8953052,46.851851 52.5851873,47.0177778 C52.2750695,47.1837045 52.0114733,47.4014801 51.7943908,47.6711111 C51.5773084,47.9407421 51.4101918,48.2483933 51.2930362,48.5940741 C51.1758806,48.9397548 51.1173036,49.2923439 51.1173036,49.6518519 Z M60.5729528,46.0118519 L61.4516155,46.0118519 L62.4233132,48.5733333 L63.4053481,46.0118519 L64.2840109,46.0118519 L63.0125341,49.2162963 L64.2736737,52.2548148 L66.7546039,45.9703704 L67.7676504,45.9703704 L64.6974993,53.3333333 L63.8911969,53.3333333 L62.4336504,49.8592593 L60.9657667,53.3333333 L60.1594644,53.3333333 L57.0996504,45.9703704 L58.1023597,45.9703704 L60.5936272,52.2548148 L61.8444295,49.2162963 L60.5729528,46.0118519 Z M75.5250999,46.8 L72.9924836,46.8 L72.9924836,53.3333333 L72.0621347,53.3333333 L72.0621347,46.8 L69.5295185,46.8 L69.5295185,45.9703704 L75.5250999,45.9703704 L75.5250999,46.8 Z M82.2620629,45.9703704 L82.2620629,53.3333333 L81.3317141,53.3333333 L81.3317141,49.9837037 L77.2898653,49.9837037 L77.2898653,53.3333333 L76.3595164,53.3333333 L76.3595164,45.9703704 L77.2898653,45.9703704 L77.2898653,49.1540741 L81.3317141,49.1540741 L81.3317141,45.9703704 L82.2620629,45.9703704 Z M83.7994097,53.3333333 L83.7994097,45.9703704 L86.9419214,45.9703704 C87.2658222,45.9703704 87.5638754,46.0377771 87.83609,46.1725926 C88.1083045,46.3074081 88.3426122,46.4871594 88.5390202,46.7118519 C88.7354282,46.9365443 88.8887619,47.1888875 88.999026,47.4688889 C89.1092901,47.7488903 89.1644214,48.0340726 89.1644214,48.3244444 C89.1644214,48.5802482 89.1282415,48.8274062 89.0558807,49.0659259 C88.9835198,49.3044456 88.8801488,49.5204929 88.7457644,49.7140741 C88.61138,49.9076553 88.449432,50.0735796 88.2599156,50.2118519 C88.0703991,50.3501241 87.8584884,50.4503701 87.6241772,50.5125926 L89.4021772,53.3333333 L88.3477818,53.3333333 L86.6731539,50.6888889 L84.7297586,50.6888889 L84.7297586,53.3333333 L83.7994097,53.3333333 Z M84.7297586,49.8592593 L86.9522586,49.8592593 C87.1452208,49.8592593 87.3192287,49.8177782 87.4742876,49.7348148 C87.6293466,49.6518514 87.7620061,49.5395069 87.8722702,49.3977778 C87.9825343,49.2560487 88.0686769,49.0918528 88.1307004,48.9051852 C88.192724,48.7185176 88.2237353,48.5249393 88.2237353,48.3244444 C88.2237353,48.117036 88.1875555,47.9217293 88.1151946,47.7385185 C88.0428338,47.5553077 87.9463541,47.3928402 87.8257528,47.2511111 C87.7051514,47.109382 87.5638776,46.9987658 87.4019272,46.9192593 C87.2399768,46.8397527 87.0694145,46.8 86.8902353,46.8 L84.7297586,46.8 L84.7297586,49.8592593 Z M95.3535124,52.5037037 L95.3535124,53.3333333 L90.3709775,53.3333333 L90.3709775,45.9703704 L95.2604775,45.9703704 L95.2604775,46.8 L91.3013263,46.8 L91.3013263,49.1851852 L94.743617,49.1851852 L94.743617,49.962963 L91.3013263,49.962963 L91.3013263,52.5037037 L95.3535124,52.5037037 Z M98.6378475,45.9703704 L99.4234754,45.9703704 L102.421266,53.3333333 L101.428894,53.3333333 L100.560568,51.1762963 L97.4800801,51.1762963 L96.6220917,53.3333333 L95.6297196,53.3333333 L98.6378475,45.9703704 Z M100.353824,50.4503704 L99.0306615,47.0488889 L97.6661499,50.4503704 L100.353824,50.4503704 Z M103.183322,53.3333333 L103.183322,45.9703704 L105.726276,45.9703704 C106.312054,45.9703704 106.827186,46.0671595 107.271689,46.2607407 C107.716191,46.454322 108.086604,46.7170354 108.382939,47.0488889 C108.679273,47.3807424 108.901521,47.7696274 109.049689,48.2155556 C109.197856,48.6614837 109.271939,49.1367876 109.271939,49.6414815 C109.271939,50.2014843 109.189242,50.707899 109.023846,51.1607407 C108.858449,51.6135825 108.620696,52.0007391 108.310578,52.3222222 C108.00046,52.6437053 107.626602,52.8925917 107.188991,53.0688889 C106.75138,53.2451861 106.263813,53.3333333 105.726276,53.3333333 L103.183322,53.3333333 Z M108.331252,49.6414815 C108.331252,49.2266646 108.274398,48.8446931 108.160689,48.4955556 C108.046979,48.146418 107.878139,47.8474087 107.654165,47.5985185 C107.430191,47.3496284 107.156258,47.1543217 106.832357,47.0125926 C106.508456,46.8708635 106.139766,46.8 105.726276,46.8 L104.113671,46.8 L104.113671,52.5037037 L105.726276,52.5037037 C106.146658,52.5037037 106.520516,52.4311118 106.847863,52.2859259 C107.17521,52.14074 107.44742,51.9402482 107.664502,51.6844444 C107.881585,51.4286407 108.046979,51.1261746 108.160689,50.777037 C108.274398,50.4278995 108.331252,50.0493848 108.331252,49.6414815 Z M110.364785,53.3333333 L110.364785,45.9703704 L111.295134,45.9703704 L111.295134,53.3333333 L110.364785,53.3333333 Z M113.76283,47.7125926 L113.76283,53.3333333 L112.832481,53.3333333 L112.832481,45.9703704 L113.556086,45.9703704 L118.104458,51.7051852 L118.104458,45.9807407 L119.034807,45.9807407 L119.034807,53.3333333 L118.249179,53.3333333 L113.76283,47.7125926 Z M125.751095,52.3377778 C125.103294,53.0360529 124.359022,53.3851852 123.518258,53.3851852 C123.028961,53.3851852 122.575851,53.2780258 122.158915,53.0637037 C121.741979,52.8493816 121.381903,52.5676561 121.078677,52.2185185 C120.77545,51.869381 120.535974,51.4701257 120.360241,51.0207407 C120.184507,50.5713558 120.096642,50.1081505 120.096642,49.6311111 C120.096642,49.1333308 120.182784,48.6614837 120.355072,48.2155556 C120.52736,47.7696274 120.765113,47.3755573 121.068339,47.0333333 C121.371566,46.6911094 121.733364,46.4197541 122.153746,46.2192593 C122.574128,46.0187644 123.028961,45.9185185 123.518258,45.9185185 C124.228083,45.9185185 124.81213,46.067159 125.270415,46.3644444 C125.7287,46.6617299 126.078439,47.0488865 126.319642,47.5259259 L125.606374,48.0237037 C125.385846,47.5950596 125.092961,47.2770381 124.727712,47.0696296 C124.362462,46.8622212 123.952423,46.7585185 123.497584,46.7585185 C123.125442,46.7585185 122.787763,46.8397523 122.484537,47.0022222 C122.181311,47.1646922 121.922883,47.379011 121.709246,47.6451852 C121.49561,47.9113594 121.330216,48.2190106 121.21306,48.5681481 C121.095905,48.9172857 121.037328,49.2785167 121.037328,49.6518519 C121.037328,50.0459279 121.102796,50.4175291 121.233735,50.7666667 C121.364673,51.1158042 121.54385,51.4234555 121.77127,51.6896296 C121.998689,51.9558038 122.267454,52.1649375 122.577572,52.317037 C122.88769,52.4691366 123.225369,52.5451852 123.590618,52.5451852 C124.390033,52.5451852 125.110185,52.1580286 125.751095,51.3837037 L125.751095,50.3674074 L124.169502,50.3674074 L124.169502,49.6622222 L126.536723,49.6622222 L126.536723,53.3333333 L125.751095,53.3333333 L125.751095,52.3377778 Z" id="EYEBROW-THREADING" fill="#18170B"></path>
                    <g id="Group-2">
                        <path d="M7.43545983,59.6296296 C6.18022727,59.4814815 4.99883192,59.037037 4.0389482,58.1481481 L4.0389482,58 L3.66976215,57.4074074 L3.59592494,57.4074074 C3.59592494,57.1111111 3.15290169,56.8888889 3.00522727,56.5925926 C2.4883668,55.5555556 2.4145296,54.4444444 2.19301797,53.3333333 L2.11918076,53.3333333 C1.82383192,52.962963 1.6761575,52.5185185 1.6761575,52 C1.6761575,49.1111111 0.790110991,50.2962963 0.937785409,47.4074074 C1.01162262,45.7777778 0.937785409,44 0.790110991,42.4444444 C0.568599363,40.2962963 0.716273781,38.1481481 0.568599363,36.0740741 C0.420924944,33.3333333 0.790110991,30.5185185 0.716273781,27.8518519 C0.568599363,25.3333333 0.568599363,22.8888889 0.937785409,20.4444444 C1.01162262,19.9259259 0.790110991,19.2592593 1.15929704,18.7407407 L1.01162262,18.7407407 C1.01162262,18 0.790110991,17.3333333 0.568599363,16.5185185 C0.494762154,16.5185185 0.420924944,16.4444444 0.420924944,16.3703704 C0.125576107,16 0.273250526,15.7777778 0.494762154,15.5555556 C2.26685518,14 4.18662262,13.7037037 6.32790169,14.4444444 C7.2139482,14.8148148 8.17383192,15.3333333 8.39534355,16.4444444 C8.7645296,18.8148148 9.20755285,21.1111111 9.05987843,23.3333333 C9.94592494,21.3333333 11.2749947,18.8888889 12.9732505,17.4814815 C14.5238319,16.1481481 16.3697622,15.4814815 18.3633668,15.037037 C19.0279017,14.8148148 19.840111,15.037037 20.3569715,15.5555556 C20.8738319,16.0740741 21.5383668,16.2962963 22.2029017,16.7407407 C23.384297,17.6296296 23.9011575,18.8148148 24.1965063,20.1481481 C24.7133668,23.037037 24.3441808,25.8518519 22.7197622,28.3703704 C22.5720877,28.5185185 22.4982505,28.7407407 22.4244133,28.962963 C22.2767389,29.037037 22.2767389,29.1851852 22.2767389,29.3333333 C20.2831342,31.7777778 22.6459249,30.1481481 23.015111,29.8518519 C25.0087156,28.5185185 26.6331342,27.1851852 28.0360412,25.4814815 C29.1435994,24.1481481 30.1773203,22.2962963 30.6941808,21.5555556 C31.6540645,20.5925926 32.0970877,21.1111111 32.4662738,21.7777778 C32.3185994,22.1481481 32.6139482,22 32.4662738,22.3703704 C32.2447622,22.6666667 31.6540645,23.4074074 31.4325529,23.7777778 C31.5063901,23.7037037 28.5529017,28.0740741 24.9348784,30.6666667 C24.787204,30.8148148 24.7133668,30.8888889 24.6395296,31.037037 C24.418018,31.1851852 24.1965063,31.2592593 23.9749947,31.3333333 C23.5319715,31.5555556 23.0889482,31.7037037 22.6459249,31.9259259 C22.3505761,32.3703704 21.9075529,32.5925926 21.3168552,32.6666667 L20.7261575,32.8888889 C20.5046459,32.962963 19.3970877,33.7777778 15.4098784,34 C15.3360412,33.9259259 15.1883668,33.9259259 15.1145296,33.9259259 C13.9331342,33.4814815 12.6040645,33.7777778 11.6441808,32.8888889 C11.0534831,32.3703704 10.5366226,32.7407407 10.2412738,33.6296296 C10.0197622,34.8888889 9.65057611,36.2222222 9.5767389,37.4074074 C9.50290169,38.8888889 8.7645296,40.4444444 9.5767389,41.8518519 C9.79825053,42.2962963 9.5767389,42.8888889 9.5767389,43.4074074 C9.50290169,44.5185185 9.28139006,45.7037037 9.94592494,46.7407407 L9.94592494,47.1111111 C10.0197622,48.4444444 9.79825053,49.3333333 10.0197622,49.7777778 C10.0935994,49.8518519 10.0935994,49.9259259 10.0935994,50.0740741 C10.0197622,50.4444444 9.94592494,53.1111111 10.0197622,53.9259259 C10.0935994,54.0740741 9.94592494,54.2222222 9.94592494,54.3703704 C9.94592494,54.5185185 10.2412738,55.2592593 10.0197622,56.3703704 C9.87208773,56.7407407 9.65057611,57.037037 9.87208773,57.4074074 C9.79825053,57.5555556 9.87208773,57.7037037 9.87208773,57.8518519 C9.79825053,58.7407407 9.35522727,59.1851852 8.61685518,59.4074074 C8.54301797,59.4074074 8.46918076,59.4814815 8.39534355,59.4814815 C8.0261575,59.4814815 7.73080867,59.5555556 7.43545983,59.6296296 Z M12.5302273,28.2962963 C13.3424366,28.2962963 14.1546459,28.2222222 14.8191808,27.7777778 C17.5511575,25.9259259 19.1755761,23.4814815 19.6185994,20.2222222 C19.6924366,19.6296296 19.7662738,19.037037 19.7662738,18.5185185 C19.4709249,16.6666667 18.437204,16.2962963 16.8127854,17.1111111 C14.893018,18.2222222 14.8191808,18.0740741 13.1947622,20.3703704 C12.8255761,20.8888889 11.5703435,22.8148148 11.4226691,23.4074074 C11.2011575,24.5185185 10.684297,25.4814815 10.2412738,26.5925926 C9.87208773,27.8518519 11.2011575,28.3703704 12.5302273,28.2962963 Z M36.0636015,36.8888889 C34.3653457,36.3703704 33.2577875,35.037037 32.5194154,33.3333333 C31.4856945,30.7407407 31.1165085,27.9259259 32.1502294,25.1851852 C32.2979038,24.6666667 32.371741,24.1481481 32.5932526,23.7037037 C32.8147643,23.2592593 32.7409271,22.962963 32.2240666,22.8148148 C32.002555,22.7407407 31.7810433,22.6666667 31.5595317,22.6666667 C30.3781364,22.5185185 29.4920899,21.7777778 28.6798805,21.037037 C27.3508108,19.9259259 26.5386015,18.5185185 26.021741,17.037037 C25.8740666,16.5925926 25.7263922,16.1481481 25.7263922,15.7777778 C25.5787178,13.9259259 26.021741,12.2962963 26.7601131,10.6666667 C26.9816247,10.0740741 27.424648,9.62962963 28.0891829,9.62962963 C28.7537178,9.62962963 29.4182526,9.25925926 29.9351131,9.11111111 C30.4519736,8.88888889 30.8949968,8.88888889 31.1903457,9.40740741 C31.2641829,9.55555556 31.4118573,9.7037037 31.6333689,9.77777778 C32.5194154,10.3703704 32.9624387,11.1851852 33.1101131,12.2222222 C33.4054619,13.5555556 33.5531364,14.8148148 33.2577875,16.0740741 C33.1101131,16.962963 33.0362759,17.9259259 32.8886015,18.8148148 C33.774648,18.6666667 34.5130201,18.1481481 35.177555,17.5555556 C36.4327875,16.3703704 38.1310433,16.3703704 39.6816247,16.5925926 C41.0106945,16.8148148 41.896741,17.8518519 42.4136015,19.037037 C42.9304619,20.1481481 43.0042992,21.3333333 42.6351131,22.5185185 C42.4136015,23.2592593 42.2659271,24 41.8229038,24.5925926 C41.6013922,25.037037 41.3798805,25.6296296 41.3060433,26.2222222 C41.0845317,26.8888889 40.7891829,27.6296296 40.4199968,28.2962963 C39.3124387,29.7777778 38.721741,31.4074074 38.0572061,33.1851852 L38.0572061,33.6296296 C37.9833689,33.7777778 37.9833689,33.9259259 38.0572061,34.0740741 C37.9833689,34.3703704 38.1310433,34.6666667 38.6479038,34.8888889 C41.6013922,35.6296296 43.0042992,34.3703704 45.2932526,32.5925926 C46.1792992,31.8518519 46.7699968,31.037037 47.3606945,30.0740741 C48.1729038,28.8888889 48.6159271,28.4444444 51.4955782,22.0740741 C51.6432526,21.8518519 51.7170899,21.2592593 52.3816247,21.7037037 C52.9723224,22.0740741 53.2676712,22 52.7508108,23.1111111 C49.5019736,30 48.8374387,31.3333333 46.1054619,34.2222222 C45.5886015,34.7407407 44.9979038,35.1111111 44.4810433,35.5555556 C41.9705782,37.7777778 39.0170899,37.7777778 36.0636015,36.8888889 Z M57.9725571,36.8888889 C57.8248827,36.8888889 57.6772082,36.8888889 57.5295338,36.8148148 C56.4958129,36.5185185 55.3882548,36.2962963 54.2806966,36.2222222 C52.5086036,36 51.0318594,35.1111111 49.8504641,33.9259259 C47.3399989,31.3333333 48.0045338,26.8888889 48.078371,25.2592593 C48.1522082,23.1111111 48.9644175,21.1851852 49.8504641,19.2592593 C50.884185,17.037037 52.5824408,15.2592593 54.2068594,13.4814815 C54.5760455,13.037037 55.1667431,12.5925926 55.5359292,11.9259259 C55.6097664,11.6296296 55.9789524,11.4814815 56.2004641,11.7037037 C56.7911617,12.1481481 57.603371,12.0740741 58.2679059,12.2962963 C59.3016268,12.6666667 59.7446501,12.2962963 60.6306966,12.8148148 C61.1475571,13.037037 61.5905803,13.1851852 62.181278,13.4814815 C63.3626734,14 64.2487199,14.8148148 64.7655803,16 C64.987092,16.5925926 64.8394175,16.8888889 64.3225571,17.2592593 C64.1010455,17.4074074 63.8795338,17.7037037 63.584185,18 C63.2149989,18.2962963 62.1074408,18.6666667 61.5167431,19.037037 C60.9998827,19.3333333 60.5568594,19.7037037 60.3353478,20.4444444 C60.3353478,20.5925926 60.1138362,20.8148148 59.9661617,21.037037 C59.8184873,21.1111111 59.6708129,21.2592593 59.5969757,21.4074074 C59.1539524,22.2222222 58.637092,23.037037 57.8248827,23.4814815 C57.7510455,23.4814815 57.7510455,23.5555556 57.6772082,23.6296296 C57.4556966,24.8148148 56.4219757,25.6296296 56.2004641,26.8148148 C56.2004641,26.8888889 56.1266268,26.962963 56.1266268,27.037037 C55.3144175,28 55.2405803,29.1851852 54.9452315,30.3703704 C54.6498827,31.7777778 55.5359292,32.962963 56.5696501,34.0740741 C57.0126734,34.5925926 57.3080222,34.6666667 57.8987199,34.2962963 C58.8586036,33.7777778 59.4493013,32.962963 60.1138362,32.2962963 C61.2952315,31.037037 62.0336036,29.4814815 62.8458129,28 C62.9934873,27.5555556 63.1411617,27.1111111 63.1411617,26.6666667 C63.0673245,24.8888889 63.4365106,23.4074074 63.5103478,21.7777778 C63.5103478,21.3333333 63.8056966,21.037037 64.2487199,21.037037 C64.8394175,20.962963 65.4301152,20.962963 65.9469757,20.962963 C66.5376734,20.962963 66.6115106,21.1851852 66.6115106,21.6296296 L66.3899989,22.4444444 C66.1684873,22.5925926 66.0946501,22.8148148 66.0208129,23.037037 C66.0208129,24.0740741 65.9469757,24.962963 65.9469757,26 C65.9469757,26.0740741 65.9469757,26.2222222 65.8731385,26.3703704 C65.8731385,26.6666667 65.8731385,26.8148148 65.9469757,27.1111111 C65.9469757,27.7777778 66.4638362,28.3703704 66.5376734,29.1111111 C66.4638362,30.962963 67.2022082,32.0740741 69.1219757,32.5185185 C69.4911617,32.5925926 70.0080222,32.7407407 71.1155803,32.0740741 C71.4109292,31.8518519 72.1493013,31.4814815 72.2231385,31.2592593 C72.2969757,31.037037 74.3644175,28.1481481 74.7336036,27.1851852 C75.5458129,25.037037 76.5056966,24 76.9487199,21.3333333 C77.0963943,20.5925926 77.3917431,20.2222222 78.2039524,20.8888889 C79.2376734,21.7037037 78.7208129,22.2222222 78.5731385,22.8148148 C77.6132548,26.4444444 76.284185,28 75.4719757,29.4814815 C74.6597664,31.1111111 73.3306966,32.962963 72.7399989,33.3333333 C72.2231385,33.6296296 71.4847664,34.2222222 71.337092,34.5185185 C71.1155803,34.8148148 69.5649989,35.1851852 69.1958129,35.037037 C68.6051152,34.8888889 67.2022082,34.6666667 66.6853478,34.2222222 C65.9469757,33.7037037 65.2086036,33.1851852 64.6917431,32.2962963 C64.6917431,32.2222222 64.6179059,32.2222222 64.6179059,32.1481481 C64.1748827,31.4814815 64.1010455,31.3333333 63.7318594,31.7037037 C63.5103478,31.7777778 63.4365106,31.8518519 63.2888362,32.1481481 C62.2551152,34.6666667 60.2615106,35.9259259 57.9725571,36.8888889 Z M98.5623266,20.5925926 C99.0791871,20.2962963 99.8175592,22 99.743722,22.1481481 C99.6698848,22.1481481 99.5222104,22.1481481 99.5222104,22.2222222 C99.0053499,23.1851852 98.4146522,24.1481481 97.5286057,26.0740741 C97.2332569,26.4444444 97.0855825,26.8148148 96.7902336,27.2592593 C96.4948848,27.5555556 94.4274429,30.7407407 93.6152336,31.7777778 C93.393722,32.0740741 93.1722104,32.4444444 93.0245359,32.7407407 C92.7291871,33.1851852 91.5477918,35.4814815 90.6617452,36.0740741 C90.587908,36.1481481 90.4402336,36.2222222 90.3663964,36.3703704 C89.3326755,37.7777778 87.9297685,38.5185185 86.2315127,38.8148148 C84.9024429,39.1111111 83.6472104,38.8148148 82.3919778,38.2962963 C81.6536057,37.9259259 80.8413964,37.2592593 80.1030243,36.7407407 C79.6600011,36.4444444 79.1431406,36.1481481 78.7001173,35.7777778 C78.2570941,35.2592593 77.5925592,34.8148148 77.2972104,34.1481481 C77.0018615,33.4074074 76.6326755,32.7407407 76.3373266,32.0740741 C76.0419778,31.4074074 74.7867452,27.9259259 74.6390708,25.037037 C74.6390708,24.2962963 74.5652336,24.962963 74.4913964,24.2222222 C74.343722,21.7037037 74.5652336,20.8148148 74.8605825,18.4444444 C74.9344197,17.4814815 74.9344197,17.4074074 73.9745359,17.4074074 C74.4913964,17.1111111 72.4977918,17.1851852 72.0547685,17.037037 C71.9809313,16.962963 71.8332569,16.962963 71.6855825,16.8888889 C71.537908,16.7407407 71.4640708,16.6666667 71.2425592,16.5925926 C70.9472104,16.4444444 70.9472104,16.1481481 71.0948848,15.9259259 C71.0948848,15.8518519 71.168722,15.8518519 71.168722,15.8518519 C71.6855825,15.1111111 71.6855825,15.1111111 72.6454662,15.1111111 L73.9006987,15.037037 C74.343722,14.8888889 74.1222104,15.1111111 74.7867452,15.037037 C75.0820941,15.037037 75.2297685,14.962963 75.3036057,14.6666667 C75.3774429,14.1481481 75.5251173,13.6296296 75.5251173,13.1111111 C75.6727918,12.0740741 75.8204662,10.962963 76.0419778,9.92592593 L76.4850011,7.85185185 C76.7803499,6.51851852 77.1495359,5.11111111 77.518722,3.7037037 C77.5925592,3.18518519 77.8140708,2.74074074 77.7402336,2.22222222 L77.7402336,2.07407407 C77.887908,0.222222222 78.7739545,1.2390089e-13 80.4722104,0.37037037 C81.7274429,0.962962963 83.1303499,1.48148148 84.1640708,2.59259259 L84.6809313,3.03703704 C85.3454662,3.48148148 85.640815,4.22222222 86.0838383,4.81481481 C86.3053499,5.03703704 86.3053499,5.40740741 86.0100011,5.7037037 C85.640815,6.14814815 85.271629,6.66666667 85.271629,7.33333333 C84.6809313,7.77777778 84.9024429,8.74074074 84.4594197,9.33333333 C84.3855825,9.40740741 84.3855825,9.62962963 84.3117452,9.7037037 C84.3117452,10.8888889 84.237908,12.2962963 83.9425592,13.4074074 L83.9425592,13.7777778 C83.868722,14.2222222 83.9425592,14.3703704 84.3855825,14.3703704 C86.2315127,14.2962963 86.9698848,13.7777778 87.043722,13.7777778 C88.1512801,13.8518519 88.815815,13.1851852 89.9233732,13.4814815 C90.5140708,13.5555556 91.0309313,13.7777778 91.621629,13.9259259 C91.8431406,14 92.0646522,14.5925926 91.8431406,14.8148148 C91.3262801,15.4074074 90.9570941,16.1481481 90.0710476,16.3703704 C89.0373266,16.6666667 88.1512801,16.8888889 87.043722,17.037037 L84.237908,17.4814815 C84.0902336,17.4814815 83.9425592,17.4814815 83.7948848,17.5555556 C83.5733732,17.6296296 83.4995359,17.7777778 83.4995359,18.0740741 C83.7210476,19.2592593 83.4256987,20.3703704 83.2780243,21.5555556 L83.2780243,22.0740741 C83.4256987,23.1851852 83.2780243,22.8148148 82.8350011,23.7777778 C82.7611638,23.9259259 82.7611638,24.1481481 82.7611638,24.2962963 C82.8350011,25.4074074 82.8350011,24.962963 82.465815,26 C82.3181406,26.2962963 82.3181406,26.5925926 82.465815,26.962963 C82.5396522,27.5555556 82.3919778,31.1851852 82.6873266,32.1481481 C82.6873266,32.2222222 82.7611638,32.2962963 82.6873266,32.3703704 C82.5396522,33.3333333 83.1303499,34.1481481 83.5733732,34.962963 C83.868722,35.4814815 84.3117452,35.8518519 84.7547685,36.2222222 C85.271629,36.6666667 85.8623266,36.7407407 86.4530243,36.4444444 L87.9297685,35.5555556 C88.8896522,34.8888889 89.7018615,34 90.5140708,33.1111111 C91.6954662,31.9259259 92.5815127,30.5925926 93.3198848,29.1851852 L93.6890708,28.5185185 C94.2797685,27.4814815 95.0181406,26.3703704 95.6088383,25.2592593 C95.9780243,24.5185185 96.4210476,23.7037037 96.7163964,22.8888889 C97.0117452,21.5555556 97.4547685,21.1851852 98.5623266,20.5925926 Z M100.387561,12.1481481 C98.172445,12.3703704 97.3602357,11.4074074 96.4741892,9.25925926 C96.1050032,8.44444444 96.031166,7.77777778 95.7358171,7.18518519 C95.6619799,6.88888889 95.6619799,6.59259259 95.5143055,6.44444444 C95.6619799,5.18518519 96.1050032,3.85185185 96.7695381,2.74074074 C97.3602357,1.62962963 98.0247706,1.03703704 98.8369799,0.37037037 C99.3538404,-0.0740740741 99.7968636,0.222222222 100.387561,0.518518519 C101.790468,1.18518519 104.153259,1.48148148 104.374771,1.92592593 C104.448608,2.22222222 104.596282,2.59259259 104.817794,2.66666667 C105.039305,3.18518519 104.670119,3.77777778 104.670119,4.22222222 C104.596282,5.85185185 104.374771,7.55555556 103.931747,9.11111111 C103.636399,10.962963 102.381166,12.0740741 100.978259,12.1481481 L100.387561,12.1481481 Z M103.710236,37.037037 C102.159654,37.3333333 100.830585,37.1111111 99.5015148,36.2962963 C99.0584915,35.9259259 98.5416311,35.6296296 98.0247706,35.3333333 C96.9910497,34.5185185 96.3265148,33.5555556 95.5143055,32.4444444 C95.2189567,32 95.1451195,31.4074074 95.1451195,30.8148148 C95.1451195,30.0740741 94.997445,29.3333333 95.0712822,28.5925926 C94.8497706,27.2592593 94.8497706,26.1481481 94.7759334,24.962963 C94.9236078,24.4444444 95.1451195,23.7777778 95.1451195,23.2592593 C95.1451195,22.5185185 95.0712822,21.7777778 95.3666311,21.1111111 C95.5881427,20 95.6619799,19.037037 95.8834915,18 C95.8834915,17.2592593 95.8096543,16.8148148 96.400352,16.5185185 C96.9172125,16.2962963 97.6555846,15.8518519 98.3939567,16.1481481 C99.7230264,16.5925926 101.273608,16.962963 102.602678,17.4814815 C103.119538,17.6296296 103.562561,17.7777778 103.85791,18.0740741 C104.153259,18.1481481 104.300933,18.4444444 104.374771,18.7407407 C104.374771,19.037037 104.374771,19.2592593 104.227096,19.4814815 C104.227096,20.2222222 104.153259,20.8148148 104.005585,21.6296296 C103.931747,23.6296296 103.85791,25.7777778 103.562561,27.8518519 C103.414887,29.1111111 103.414887,30.4444444 103.34105,31.7777778 C103.34105,32.6666667 103.414887,33.5555556 103.710236,34.4444444 C104.005585,35.037037 104.300933,34.962963 104.891631,34.7407407 C106.146864,33.7037037 107.03291,32.6666667 107.918957,31.3333333 C108.731166,30.0740741 112.423026,22.5925926 112.939887,21.1851852 C113.235236,20.4444444 114.195119,21.2592593 114.195119,21.4074074 C114.268957,21.6296296 114.121282,21.7777778 114.121282,22 C113.752096,23.1851852 110.281747,30.6666667 109.543375,31.6296296 C108.952678,32.5925926 108.288143,33.2592593 107.549771,34.1481481 C107.254422,34.4444444 106.885236,35.2592593 106.589887,35.6296296 C106.073026,36.2962963 104.891631,37.037037 103.710236,37.037037 Z" id="Prati" fill="#F69C6F"></path>
                        <path d="M48,29 C48,32 48,31.5 48.5,31.5 C48.8333333,31.5 50.8333333,28 54.5,21 L51,20 C49,24 48,27 48,29 Z" id="Path-9" fill="#F69C6F"></path>
                        <path d="M33,22.5 C34,22 33,22.5522847 33,22 C33,21.4477153 32.5522847,21 32,21 C31.4477153,21 30.5,21 30.5,22 C30.5,23 32,23 33,22.5 Z" id="Oval" fill="#F69C6F"></path>
                        <rect id="Rectangle-9" fill="#F69C6F" x="96" y="20" width="4" height="10"></rect>
                        <rect id="Rectangle-5" fill="#F69C6F" x="76" y="20" width="3" height="10"></rect>
                        <path d="M30.5,23.5 L30.5,20.5" id="Line" stroke="#F69C6F" stroke-linecap="square"></path>
                        <path d="M75,25.5 C74.6666667,26.8333333 74.6666667,27.8333333 75,28.5 C75.3333333,29.1666667 75.5,29.5 75.5,29.5 L77.5,27 L76.5,23.5 L75,25.5 Z" id="Path-5" fill="#F69C6F"></path>
                        <path d="M95,26 C94.6666667,26.585395 94.5,27.085395 94.5,27.5 C94.5,27.914605 94.8333333,29.0812717 95.5,31 L97.5,27.5 L97,24.5 L96,23.5 L95,26 Z" id="Path-7" fill="#F69C6F"></path>
                    </g>
                </g>
            </g>
        </g>
    </g>
</svg>