<?xml version="1.0" encoding="UTF-8" standalone="no"?>
<svg width="128px" height="60px" viewBox="0 0 128 60" version="1.1" xmlns="http://www.w3.org/2000/svg" xmlns:xlink="http://www.w3.org/1999/xlink">
    <!-- Generator: Sketch 48.2 (47327) - http://www.bohemiancoding.com/sketch -->
    <title>LOGO</title>
    <desc>Created with Sketch.</desc>
    <defs></defs>
    <g id="Artboard-2" stroke="none" stroke-width="1" fill="none" fill-rule="evenodd" transform="translate(-59.000000, -31.000000)">
        <g id="logo" transform="translate(59.428571, 31.000000)">
            <g id="Group-2">
                <path d="M7.46146307,59.929276 C6.20184072,59.7803834 5.0163138,59.3337056 4.05307318,58.4403499 L4.05307318,58.2914573 L3.68259602,57.6958868 L3.60850059,57.6958868 C3.60850059,57.3981016 3.16392799,57.1747627 3.01573713,56.8769775 C2.4970691,55.8347292 2.42297367,54.7180346 2.20068737,53.60134 L2.12659194,53.60134 C1.83021021,53.2291085 1.68201935,52.7824307 1.68201935,52.2613065 C1.68201935,49.3579006 0.792874162,50.5490415 0.941065026,47.6456356 C1.01516046,46.0078169 0.941065026,44.2211055 0.792874162,42.6577331 C0.570587865,40.4987902 0.718778729,38.3398474 0.570587865,36.2553508 C0.422397,33.5008375 0.792874162,30.6718779 0.718778729,27.9918109 C0.570587865,25.4606365 0.570587865,23.0039084 0.941065026,20.5471803 C1.01516046,20.0260562 0.792874162,19.3560395 1.16335132,18.8349153 L1.01516046,18.8349153 C1.01516046,18.0904523 0.792874162,17.4204355 0.570587865,16.6015261 C0.496492432,16.6015261 0.422397,16.5270798 0.422397,16.4526335 C0.126015271,16.080402 0.274206136,15.8570631 0.496492432,15.6337242 C2.27478281,14.0703518 4.20126405,13.7725665 6.35003158,14.5170296 C7.23917677,14.8892611 8.20241739,15.4103853 8.42470369,16.5270798 C8.79518085,18.9093616 9.23975344,21.2171971 9.09156258,23.4505863 C9.98070777,21.440536 11.3144255,18.9838079 13.0186205,17.5693281 C14.5746246,16.2292946 16.4270104,15.5592779 18.427587,15.1126 C19.0944459,14.8892611 19.9094957,15.1126 20.4281637,15.6337242 C20.9468317,16.1548483 21.6136906,16.3781872 22.2805495,16.8248651 C23.4660764,17.7182207 23.9847445,18.9093616 24.2811262,20.2493951 C24.7997942,23.152801 24.4293171,25.9817607 22.7992176,28.512935 C22.6510267,28.6618277 22.5769313,28.8851666 22.5028358,29.1085055 C22.354645,29.1829518 22.354645,29.3318444 22.354645,29.480737 C20.3540683,31.9374651 22.7251221,30.2996464 23.0955993,30.0018612 C25.096176,28.6618277 26.7262755,27.3217942 28.1340887,25.6095291 C29.2455202,24.2694956 30.2828562,22.408338 30.8015242,21.6638749 C31.7647649,20.696073 32.2093375,21.2171971 32.5798146,21.8872138 C32.4316237,22.2594454 32.7280055,22.1105528 32.5798146,22.4827843 C32.3575283,22.7805695 31.7647649,23.5250326 31.5424786,23.8972641 C31.616574,23.8228178 28.6527567,28.2151498 25.0220805,30.8207705 C24.8738897,30.9696631 24.7997942,31.0441094 24.7256988,31.193002 C24.5034125,31.3418947 24.2811262,31.416341 24.0588399,31.4907873 C23.6142673,31.7141262 23.1696947,31.8630188 22.7251221,32.0863577 C22.4287404,32.5330355 21.9841678,32.7563745 21.3914043,32.8308208 L20.7986409,33.0541597 C20.5763546,33.128606 19.4649231,33.9475154 15.4637698,34.1708543 C15.3896743,34.096408 15.2414835,34.096408 15.167388,34.096408 C13.9818611,33.6497301 12.6481433,33.9475154 11.6849027,33.0541597 C11.0921392,32.5330355 10.5734712,32.9052671 10.2770895,33.7986227 C10.0548032,35.0642099 9.68432604,36.4042434 9.6102306,37.5953843 C9.53613517,39.0843104 8.79518085,40.6476829 9.6102306,42.0621627 C9.8325169,42.5088405 9.6102306,43.1044109 9.6102306,43.6255351 C9.53613517,44.7422297 9.31384887,45.9333706 9.98070777,46.9756188 L9.98070777,47.3478504 C10.0548032,48.6878839 9.8325169,49.5812395 10.0548032,50.0279174 C10.1288986,50.1023637 10.1288986,50.17681 10.1288986,50.3257026 C10.0548032,50.6979341 9.98070777,53.3780011 10.0548032,54.1969105 C10.1288986,54.3458031 9.98070777,54.4946957 9.98070777,54.6435883 C9.98070777,54.7924809 10.2770895,55.536944 10.0548032,56.6536386 C9.90661233,57.0258701 9.68432604,57.3236553 9.90661233,57.6958868 C9.8325169,57.8447795 9.90661233,57.9936721 9.90661233,58.1425647 C9.8325169,59.0359203 9.38794431,59.4825982 8.64698998,59.7059371 C8.57289455,59.7059371 8.49879912,59.7803834 8.42470369,59.7803834 C8.05422653,59.7803834 7.7578448,59.8548297 7.46146307,59.929276 Z M12.5740479,28.4384887 C13.3890977,28.4384887 14.2041474,28.3640424 14.8710063,27.9173646 C17.6125373,26.056207 19.2426368,23.5994789 19.6872094,20.3238414 C19.7613048,19.728271 19.8354003,19.1327005 19.8354003,18.6115764 C19.5390185,16.7504188 18.5016825,16.3781872 16.871583,17.1970966 C14.9451017,18.3137912 14.8710063,18.1648986 13.2409068,20.472734 C12.8704296,20.9938582 11.6108073,22.9294621 11.4626164,23.5250326 C11.2403301,24.6417272 10.7216621,25.6095291 10.2770895,26.7262237 C9.90661233,27.9918109 11.2403301,28.512935 12.5740479,28.4384887 Z M36.1897229,37.0742602 C34.4855279,36.5531361 33.3740964,35.2131025 32.6331421,33.5008375 C31.5958061,30.8952168 31.2253289,28.0662572 32.2626649,25.3117439 C32.4108558,24.7906198 32.4849512,24.2694956 32.7072375,23.8228178 C32.9295238,23.37614 32.8554284,23.0783547 32.3367604,22.9294621 C32.1144741,22.8550158 31.8921878,22.7805695 31.6699015,22.7805695 C30.4843746,22.6316769 29.5952294,21.8872138 28.7801796,21.1427508 C27.4464618,20.0260562 26.6314121,18.6115764 26.1127441,17.1226503 C25.9645532,16.6759725 25.8163623,16.2292946 25.8163623,15.8570631 C25.6681715,13.9959055 26.1127441,12.3580867 26.8536984,10.720268 C27.0759847,10.1246976 27.5205573,9.67801973 28.1874162,9.67801973 C28.8542751,9.67801973 29.521134,9.3057882 30.039802,9.15689559 C30.55847,8.93355667 31.0030426,8.93355667 31.2994243,9.45468081 C31.3735198,9.60357342 31.5217106,9.75246603 31.7439969,9.82691234 C32.6331421,10.4224828 33.0777147,11.2413921 33.2259056,12.2836404 C33.5222873,13.6236739 33.6704782,14.8892611 33.3740964,16.1548483 C33.2259056,17.048204 33.1518101,18.016006 33.0036193,18.9093616 C33.8927645,18.760469 34.6337188,18.2393449 35.3005777,17.6437744 C36.5602,16.4526335 38.264395,16.4526335 39.820399,16.6759725 C41.1541168,16.8993114 42.043262,17.9415597 42.56193,19.1327005 C43.0805981,20.2493951 43.1546935,21.440536 42.7842163,22.6316769 C42.56193,23.37614 42.4137392,24.120603 41.9691666,24.7161735 C41.7468803,25.1628513 41.524594,25.7584217 41.4504986,26.3539922 C41.2282123,27.0240089 40.9318305,27.768472 40.5613534,28.4384887 C39.4499219,29.9274149 38.8571584,31.5652336 38.1902995,33.3519449 L38.1902995,33.7986227 C38.1162041,33.9475154 38.1162041,34.096408 38.1902995,34.2453006 C38.1162041,34.5430858 38.264395,34.840871 38.783063,35.0642099 C41.7468803,35.808673 43.1546935,34.5430858 45.4516519,32.7563745 C46.3407971,32.0119114 46.9335605,31.193002 47.526324,30.2252001 C48.3413738,29.0340592 48.7859463,28.5873814 51.6756682,22.1849991 C51.8238591,21.9616602 51.8979545,21.3660897 52.5648134,21.8127675 C53.1575769,22.1849991 53.4539586,22.1105528 52.9352906,23.2272473 C49.6750915,30.1507538 49.0082326,31.4907873 46.2667017,34.3941932 C45.7480336,34.9153173 45.1552702,35.2875489 44.6366021,35.7342267 C42.1173574,37.9676159 39.1535402,37.9676159 36.1897229,37.0742602 Z M58.1752983,37.0742602 C58.0271074,37.0742602 57.8789166,37.0742602 57.7307257,36.9998139 C56.6933897,36.7020287 55.5819582,36.4786897 54.4705267,36.4042434 C52.6922363,36.1809045 51.2103277,35.2875489 50.0248008,34.096408 C47.5055561,31.4907873 48.172415,27.0240089 48.2465104,25.3861902 C48.3206058,23.2272473 49.1356556,21.2916434 50.0248008,19.3560395 C51.0621368,17.1226503 52.7663318,15.335939 54.3964313,13.5492276 C54.7669084,13.1025498 55.3596719,12.655872 55.730149,11.9858552 C55.8042445,11.68807 56.1747216,11.5391774 56.3970079,11.7625163 C56.9897714,12.2091941 57.8048212,12.1347478 58.47168,12.3580867 C59.5090161,12.7303183 59.9535887,12.3580867 60.8427339,12.8792109 C61.3614019,13.1025498 61.8059745,13.2514424 62.398738,13.5492276 C63.5842649,14.0703518 64.4734101,14.8892611 64.9920781,16.080402 C65.2143644,16.6759725 65.0661735,16.9737577 64.5475055,17.3459892 C64.3252192,17.4948818 64.1029329,17.792667 63.8065512,18.0904523 C63.436074,18.3882375 62.3246425,18.760469 61.7318791,19.1327005 C61.213211,19.4304858 60.7686384,19.8027173 60.5463521,20.5471803 C60.5463521,20.696073 60.3240658,20.9194119 60.175875,21.1427508 C60.0276841,21.2171971 59.8794933,21.3660897 59.8053978,21.5149823 C59.3608252,22.3338917 58.8421572,23.152801 58.0271074,23.5994789 C57.953012,23.5994789 57.953012,23.6739252 57.8789166,23.7483715 C57.6566303,24.9395124 56.6192942,25.7584217 56.3970079,26.9495626 C56.3970079,27.0240089 56.3229125,27.0984552 56.3229125,27.1729015 C55.5078628,28.1407035 55.4337673,29.3318444 55.1373856,30.5229853 C54.8410039,31.9374651 55.730149,33.128606 56.7674851,34.2453006 C57.2120577,34.7664247 57.5084394,34.840871 58.1012029,34.4686395 C59.0644435,33.9475154 59.657207,33.128606 60.3240658,32.4585892 C61.5095928,31.193002 62.2505471,29.6296296 63.0655968,28.1407035 C63.2137877,27.6940257 63.3619786,27.2473479 63.3619786,26.80067 C63.2878831,25.0139587 63.6583603,23.5250326 63.7324557,21.8872138 C63.7324557,21.440536 64.0288375,21.1427508 64.4734101,21.1427508 C65.0661735,21.0683045 65.658937,21.0683045 66.177605,21.0683045 C66.7703685,21.0683045 66.8444639,21.2916434 66.8444639,21.7383212 L66.6221776,22.5572306 C66.3998913,22.7061232 66.3257959,22.9294621 66.2517004,23.152801 C66.2517004,24.1950493 66.177605,25.088405 66.177605,26.1306533 C66.177605,26.2050996 66.177605,26.3539922 66.1035096,26.5028848 C66.1035096,26.80067 66.1035096,26.9495626 66.177605,27.2473479 C66.177605,27.9173646 66.696273,28.512935 66.7703685,29.2573981 C66.696273,31.1185557 67.4372273,32.2352503 69.3637086,32.6819282 C69.7341858,32.7563745 70.2528538,32.9052671 71.3642853,32.2352503 C71.660667,32.0119114 72.4016213,31.6396799 72.4757167,31.416341 C72.5498122,31.193002 74.6244843,28.2895961 74.9949614,27.3217942 C75.8100112,25.1628513 76.7732518,24.120603 77.2178244,21.440536 C77.3660153,20.696073 77.662397,20.3238414 78.4774468,20.9938582 C79.5147828,21.8127675 78.9961148,22.3338917 78.8479239,22.9294621 C77.8846833,26.5773311 76.5509655,28.1407035 75.7359158,29.6296296 C74.920866,31.2674484 73.5871482,33.128606 72.9943848,33.5008375 C72.4757167,33.7986227 71.7347624,34.3941932 71.5865716,34.6919784 C71.3642853,34.9897636 69.8082812,35.3619952 69.437804,35.2131025 C68.8450406,35.0642099 67.4372273,34.840871 66.9185593,34.3941932 C66.177605,33.873069 65.4366507,33.3519449 64.9179827,32.4585892 C64.9179827,32.3841429 64.8438872,32.3841429 64.8438872,32.3096966 C64.3993146,31.6396799 64.3252192,31.4907873 63.954742,31.8630188 C63.7324557,31.9374651 63.6583603,32.0119114 63.5101694,32.3096966 C62.4728334,34.840871 60.4722567,36.1064582 58.1752983,37.0742602 Z M98.9070181,20.696073 C99.4256862,20.3982877 100.16664,22.1105528 100.092545,22.2594454 C100.01845,22.2594454 99.8702588,22.2594454 99.8702588,22.3338917 C99.3515907,23.3016937 98.7588273,24.2694956 97.8696821,26.2050996 C97.5733004,26.5773311 97.4251095,26.9495626 97.1287278,27.3962405 C96.832346,27.6940257 94.7576739,30.8952168 93.9426242,31.9374651 C93.7203379,32.2352503 93.4980516,32.6074819 93.3498607,32.9052671 C93.053479,33.3519449 91.8679521,35.6597804 90.9788069,36.2553508 C90.9047114,36.3297971 90.7565206,36.4042434 90.6824252,36.5531361 C89.6450891,37.9676159 88.2372759,38.7120789 86.5330809,39.0098641 C85.1993632,39.3076494 83.9397408,39.0098641 82.6801185,38.48874 C81.9391641,38.1165085 81.1241144,37.4464917 80.3831601,36.9253676 C79.9385875,36.6275824 79.4199194,36.3297971 78.9753469,35.9575656 C78.5307743,35.4364415 77.8639154,34.9897636 77.5675336,34.3197469 C77.2711519,33.5752838 76.9006747,32.9052671 76.604293,32.2352503 C76.3079113,31.5652336 75.0482889,28.0662572 74.9000981,25.1628513 C74.9000981,24.4183882 74.8260026,25.088405 74.7519072,24.3439419 C74.6037163,21.8127675 74.8260026,20.9194119 75.1223844,18.5371301 C75.1964798,17.5693281 75.1964798,17.4948818 74.2332392,17.4948818 C74.7519072,17.1970966 72.7513305,17.2715429 72.3067579,17.1226503 C72.2326625,17.048204 72.0844716,17.048204 71.9362808,16.9737577 C71.7880899,16.8248651 71.7139945,16.7504188 71.4917082,16.6759725 C71.1953265,16.5270798 71.1953265,16.2292946 71.3435173,16.0059557 C71.3435173,15.9315094 71.4176128,15.9315094 71.4176128,15.9315094 C71.9362808,15.1870463 71.9362808,15.1870463 72.8995214,15.1870463 L74.1591438,15.1126 C74.6037163,14.9637074 74.38143,15.1870463 75.0482889,15.1126 C75.3446707,15.1126 75.4928615,15.0381537 75.566957,14.7403685 C75.6410524,14.2192444 75.7892433,13.6981202 75.7892433,13.1769961 C75.9374341,12.1347478 76.085625,11.0180532 76.3079113,9.97580495 L76.7524839,7.89130839 C77.0488656,6.55127489 77.4193428,5.13679509 77.7898199,3.72231528 C77.8639154,3.20119114 78.0862017,2.75451331 78.0121062,2.23338917 L78.0121062,2.08449656 C78.1602971,0.223338917 79.0494423,1.27148292e-13 80.7536372,0.372231528 C82.0132596,0.967801973 83.4210728,1.48892611 84.4584088,2.6056207 L84.9770769,3.05229853 C85.6439358,3.49897636 85.9403175,4.24343942 86.3848901,4.83900986 C86.6071764,5.06234878 86.6071764,5.43458031 86.3107946,5.73236553 C85.9403175,6.17904336 85.5698403,6.7001675 85.5698403,7.37018425 C84.9770769,7.81686209 85.1993632,8.78466406 84.7547906,9.38023451 C84.6806951,9.45468081 84.6806951,9.67801973 84.6065997,9.75246603 C84.6065997,10.9436069 84.5325043,12.3580867 84.2361225,13.4747813 L84.2361225,13.8470128 C84.1620271,14.2936907 84.2361225,14.4425833 84.6806951,14.4425833 C86.5330809,14.368137 87.2740353,13.8470128 87.3481307,13.8470128 C88.4595622,13.9214591 89.1264211,13.2514424 90.2378526,13.5492276 C90.830616,13.6236739 91.349284,13.8470128 91.9420475,13.9959055 C92.1643338,14.0703518 92.3866201,14.6659222 92.1643338,14.8892611 C91.6456658,15.4848316 91.2751886,16.2292946 90.3860434,16.4526335 C89.3487074,16.7504188 88.4595622,16.9737577 87.3481307,17.1226503 L84.5325043,17.5693281 C84.3843134,17.5693281 84.2361225,17.5693281 84.0879317,17.6437744 C83.8656454,17.7182207 83.7915499,17.8671133 83.7915499,18.1648986 C84.0138362,19.3560395 83.7174545,20.472734 83.5692637,21.6638749 L83.5692637,22.1849991 C83.7174545,23.3016937 83.5692637,22.9294621 83.1246911,23.8972641 C83.0505956,24.0461567 83.0505956,24.2694956 83.0505956,24.4183882 C83.1246911,25.5350828 83.1246911,25.088405 82.7542139,26.1306533 C82.606023,26.4284385 82.606023,26.7262237 82.7542139,27.0984552 C82.8283093,27.6940257 82.6801185,31.3418947 82.9765002,32.3096966 C82.9765002,32.3841429 83.0505956,32.4585892 82.9765002,32.5330355 C82.8283093,33.5008375 83.4210728,34.3197469 83.8656454,35.1386562 C84.1620271,35.6597804 84.6065997,36.0320119 85.0511723,36.4042434 C85.5698403,36.8509213 86.1626038,36.9253676 86.7553672,36.6275824 L88.2372759,35.7342267 C89.2005165,35.0642099 90.0155663,34.1708543 90.830616,33.2774986 C92.0161429,32.0863577 92.9052881,30.7463242 93.6462424,29.3318444 L94.0167196,28.6618277 C94.6094831,27.6195794 95.3504374,26.5028848 95.9432008,25.3861902 C96.313678,24.6417272 96.7582506,23.8228178 97.0546323,23.0039084 C97.3510141,21.6638749 97.7955867,21.2916434 98.9070181,20.696073 Z M100.738636,12.2091941 C98.515773,12.432533 97.7007233,11.4647311 96.8115781,9.3057882 C96.4411009,8.48687884 96.3670055,7.81686209 96.0706238,7.22129164 C95.9965283,6.92350642 95.9965283,6.6257212 95.8483375,6.47682859 C95.9965283,5.21124139 96.4411009,3.87120789 97.1079598,2.75451331 C97.7007233,1.63781872 98.3675822,1.04224828 99.1826319,0.372231528 C99.7013,-0.0744463056 100.145873,0.223338917 100.738636,0.521124139 C102.146449,1.19114089 104.517503,1.48892611 104.739789,1.93560395 C104.813885,2.23338917 104.962076,2.6056207 105.184362,2.680067 C105.406648,3.20119114 105.036171,3.79676159 105.036171,4.24343942 C104.962076,5.88125814 104.739789,7.59352317 104.295217,9.15689559 C103.998835,11.0180532 102.739213,12.1347478 101.331399,12.2091941 L100.738636,12.2091941 Z M104.07293,37.2231528 C102.516926,37.520938 101.183209,37.2975991 99.8494908,36.4786897 C99.4049182,36.1064582 98.8862502,35.808673 98.3675822,35.5108878 C97.3302461,34.6919784 96.6633872,33.7241764 95.8483375,32.6074819 C95.5519557,32.160804 95.4778603,31.5652336 95.4778603,30.9696631 C95.4778603,30.2252001 95.3296695,29.480737 95.4037649,28.736274 C95.1814786,27.3962405 95.1814786,26.2795459 95.1073832,25.088405 C95.255574,24.5672808 95.4778603,23.8972641 95.4778603,23.37614 C95.4778603,22.6316769 95.4037649,21.8872138 95.7001466,21.2171971 C95.9224329,20.1005025 95.9965283,19.1327005 96.2188146,18.0904523 C96.2188146,17.3459892 96.1447192,16.8993114 96.7374827,16.6015261 C97.2561507,16.3781872 97.997105,15.9315094 98.7380593,16.2292946 C100.071777,16.6759725 101.627781,17.048204 102.961499,17.5693281 C103.480167,17.7182207 103.92474,17.8671133 104.221121,18.1648986 C104.517503,18.2393449 104.665694,18.5371301 104.739789,18.8349153 C104.739789,19.1327005 104.739789,19.3560395 104.591598,19.5793784 C104.591598,20.3238414 104.517503,20.9194119 104.369312,21.7383212 C104.295217,23.7483715 104.221121,25.9073143 103.92474,27.9918109 C103.776549,29.2573981 103.776549,30.5974316 103.702453,31.9374651 C103.702453,32.8308208 103.776549,33.7241764 104.07293,34.6175321 C104.369312,35.2131025 104.665694,35.1386562 105.258457,34.9153173 C106.51808,33.873069 107.407225,32.8308208 108.29637,31.4907873 C109.11142,30.2252001 112.816191,22.7061232 113.334859,21.2916434 C113.631241,20.5471803 114.594482,21.3660897 114.594482,21.5149823 C114.668577,21.7383212 114.520386,21.8872138 114.520386,22.1105528 C114.149909,23.3016937 110.667424,30.8207705 109.92647,31.7885725 C109.333706,32.7563745 108.666847,33.4263912 107.925893,34.3197469 C107.629511,34.6175321 107.259034,35.4364415 106.962652,35.808673 C106.443984,36.4786897 105.258457,37.2231528 104.07293,37.2231528 Z" id="Prati" fill="#9E0626"></path>
                <path d="M48.1678653,29.1457286 C48.1678653,32.160804 48.1678653,31.6582915 48.6696139,31.6582915 C49.0041129,31.6582915 51.0111073,28.1407035 54.690597,21.1055276 L51.1783569,20.1005025 C49.1713625,24.120603 48.1678653,27.1356784 48.1678653,29.1457286 Z" id="Path-9" fill="#9E0626"></path>
                <path d="M33.1154074,22.6130653 C34.1189046,22.1105528 33.1154074,22.6656128 33.1154074,22.1105528 C33.1154074,21.5554927 32.6661264,21.1055276 32.1119102,21.1055276 C31.557694,21.1055276 30.6066644,21.1055276 30.6066644,22.1105528 C30.6066644,23.1155779 32.1119102,23.1155779 33.1154074,22.6130653 Z" id="Oval" fill="#9E0626"></path>
                <rect id="Rectangle-9" fill="#9E0626" x="96.3357305" y="20.1005025" width="4.01398877" height="10.0502513"></rect>
                <rect id="Rectangle-5" fill="#9E0626" x="76.2657867" y="20.1005025" width="3.01049158" height="10.0502513"></rect>
                <path d="M30.6066644,23.6180905 L30.6066644,20.6030151" id="Line" stroke="#9E0626" stroke-width="1.00339348" stroke-linecap="square"></path>
                <path d="M75.2622895,25.6281407 C74.9277904,26.9681742 74.9277904,27.9731993 75.2622895,28.6432161 C75.5967886,29.3132328 75.7640381,29.6482412 75.7640381,29.6482412 L77.7710325,27.1356784 L76.7675353,23.6180905 L75.2622895,25.6281407 Z" id="Path-5" fill="#9E0626"></path>
                <path d="M95.3322334,26.1306533 C94.9977343,26.7189899 94.8304848,27.2215025 94.8304848,27.638191 C94.8304848,28.0548794 95.1649838,29.2274087 95.8339819,31.1557789 L97.8409763,27.638191 L97.3392277,24.6231156 L96.3357305,23.6180905 L95.3322334,26.1306533 Z" id="Path-7" fill="#9E0626"></path>
            </g>
            <path d="M26.3933454,52.3364258 C26.2224461,52.5398773 26.0092321,52.7050775 25.753697,52.8320312 C25.4981619,52.958985 25.2125202,53.0224609 24.8967634,53.0224609 C24.4215006,53.0224609 24.0105347,52.9142263 23.6638532,52.6977539 C23.3171718,52.4812815 23.0526888,52.1769225 22.8703962,51.784668 C22.6881036,51.3924134 22.5969587,50.9407578 22.5969587,50.4296875 C22.5969587,49.8502575 22.6897312,49.3473329 22.875279,48.9208984 C23.0608268,48.494464 23.3236823,48.1665051 23.6638532,47.9370117 C24.0040242,47.7075184 24.4019694,47.5927734 24.8577009,47.5927734 C25.4566622,47.5927734 25.9180834,47.7742495 26.2419782,48.137207 C26.5658731,48.5001646 26.7278181,49.0511031 26.7278181,49.7900391 L23.6028181,49.7900391 C23.5800315,49.9690764 23.5686384,50.1822904 23.5686384,50.4296875 C23.5686384,50.8691428 23.6410661,51.2532536 23.7859235,51.5820312 C23.930781,51.9108089 24.120395,52.1630851 24.3547712,52.3388672 C24.5891474,52.5146493 24.8365407,52.6025391 25.0969587,52.6025391 C25.767535,52.6025391 26.2574389,52.2688835 26.5666853,51.6015625 L26.7668806,51.6796875 C26.6887552,51.9140637 26.5642447,52.1329742 26.3933454,52.3364258 Z M24.2522321,47.980957 C24.0797052,48.1127936 23.9348499,48.3146145 23.8176618,48.5864258 C23.7004737,48.858237 23.6239771,49.1959615 23.5881696,49.5996094 L25.765904,49.5996094 C25.7789249,49.2675765 25.7512559,48.9632175 25.6828962,48.6865234 C25.6145365,48.4098293 25.5071157,48.190105 25.3606306,48.0273438 C25.2141455,47.8645825 25.0334832,47.7832031 24.8186384,47.7832031 C24.6135592,47.7832031 24.424759,47.8491204 24.2522321,47.980957 Z M33.3737723,47.7294922 L33.3737723,47.9296875 C33.2403081,47.9459636 33.1214942,48.0061844 33.017327,48.1103516 C32.9131598,48.2145188 32.8155046,48.3886707 32.7243583,48.6328125 L31.0837333,52.9296875 L30.7419364,53.7988281 C30.6149826,54.1276058 30.4717549,54.3619785 30.3122489,54.5019531 C30.1234459,54.67448 29.8630318,54.7607422 29.5309989,54.7607422 C29.3324302,54.7607422 29.1696714,54.7078456 29.0427176,54.6020508 C28.9157639,54.496256 28.852288,54.3489593 28.852288,54.1601562 C28.852288,54.0006502 28.899488,53.8728846 28.9938895,53.7768555 C29.088291,53.6808263 29.2184981,53.6328125 29.3845145,53.6328125 C29.5309996,53.6328125 29.6522549,53.6735022 29.7482841,53.7548828 C29.8443132,53.8362634 29.892327,53.9518222 29.892327,54.1015625 C29.892327,54.3001312 29.8028097,54.4498693 29.6237723,54.5507812 C29.6367932,54.5572917 29.6563243,54.5605469 29.6823661,54.5605469 C30.0502065,54.5605469 30.3334068,54.3001328 30.5319755,53.7792969 L30.8884208,52.8662109 L29.0720145,48.5009766 C28.9580817,48.2698556 28.8449643,48.1184899 28.7326591,48.046875 C28.6203538,47.9752601 28.5072364,47.9394531 28.3933036,47.9394531 L28.3933036,47.7294922 C28.7058051,47.7718101 29.0329503,47.7929688 29.3747489,47.7929688 C29.6612087,47.7929688 30.094147,47.7718101 30.673577,47.7294922 L30.673577,47.9394531 C30.5108158,47.9394531 30.3838639,47.9451497 30.2927176,47.956543 C30.2015714,47.9679363 30.1258885,47.9988604 30.0656669,48.0493164 C30.0054452,48.0997724 29.9753348,48.1787104 29.9753348,48.2861328 C29.9753348,48.4065761 30.0176521,48.5709625 30.102288,48.7792969 L31.3083426,51.7675781 L32.4118583,48.8720703 C32.4834732,48.6767568 32.5192801,48.5237636 32.5192801,48.4130859 C32.5192801,48.2568352 32.4598732,48.1412764 32.3410575,48.0664062 C32.2222418,47.9915361 32.0326278,47.9459636 31.7722098,47.9296875 L31.7722098,47.7294922 C32.1237741,47.7490235 32.4037192,47.7587891 32.6120536,47.7587891 C32.908279,47.7587891 33.1621827,47.7490235 33.3737723,47.7294922 Z M38.9625977,52.3364258 C38.7916984,52.5398773 38.5784844,52.7050775 38.3229492,52.8320312 C38.0674141,52.958985 37.7817724,53.0224609 37.4660156,53.0224609 C36.9907529,53.0224609 36.5797869,52.9142263 36.2331055,52.6977539 C35.8864241,52.4812815 35.621941,52.1769225 35.4396485,51.784668 C35.2573559,51.3924134 35.166211,50.9407578 35.166211,50.4296875 C35.166211,49.8502575 35.2589835,49.3473329 35.4445313,48.9208984 C35.6300791,48.494464 35.8929345,48.1665051 36.2331055,47.9370117 C36.5732765,47.7075184 36.9712217,47.5927734 37.4269531,47.5927734 C38.0259145,47.5927734 38.4873356,47.7742495 38.8112305,48.137207 C39.1351253,48.5001646 39.2970703,49.0511031 39.2970703,49.7900391 L36.1720703,49.7900391 C36.1492838,49.9690764 36.1378906,50.1822904 36.1378906,50.4296875 C36.1378906,50.8691428 36.2103183,51.2532536 36.3551758,51.5820312 C36.5000333,51.9108089 36.6896473,52.1630851 36.9240235,52.3388672 C37.1583996,52.5146493 37.405793,52.6025391 37.666211,52.6025391 C38.3367872,52.6025391 38.8266912,52.2688835 39.1359375,51.6015625 L39.3361328,51.6796875 C39.2580074,51.9140637 39.133497,52.1329742 38.9625977,52.3364258 Z M36.8214844,47.980957 C36.6489575,48.1127936 36.5041022,48.3146145 36.3869141,48.5864258 C36.269726,48.858237 36.1932294,49.1959615 36.1574219,49.5996094 L38.3351563,49.5996094 C38.3481772,49.2675765 38.3205082,48.9632175 38.2521485,48.6865234 C38.1837887,48.4098293 38.0763679,48.190105 37.9298828,48.0273438 C37.7833977,47.8645825 37.6027355,47.7832031 37.3878906,47.7832031 C37.1828115,47.7832031 36.9940113,47.8491204 36.8214844,47.980957 Z M45.3448801,47.8979492 C45.6297122,48.1014008 45.8535055,48.4073873 46.0162668,48.815918 C46.179028,49.2244487 46.2604074,49.7233043 46.2604074,50.3125 C46.2604074,50.8886748 46.1603107,51.3810201 45.9601144,51.7895508 C45.7599181,52.1980815 45.4905523,52.5056956 45.152009,52.7124023 C44.8134656,52.9191091 44.4391204,53.0224609 44.0289621,53.0224609 C43.7848202,53.0224609 43.5471924,52.9728195 43.3160715,52.8735352 C43.0849505,52.7742508 42.8831296,52.6285817 42.7106027,52.4365234 L41.9977121,53.0419922 L41.8316965,52.96875 C41.8772696,52.8059888 41.9000558,52.6139334 41.9000558,52.3925781 L41.9000558,46.25 C41.9000558,45.9407537 41.8439041,45.7169603 41.7315988,45.5786133 C41.6192936,45.4402662 41.4215416,45.3710938 41.1383371,45.3710938 L41.1383371,45.1611328 C41.3466715,45.1806642 41.5533751,45.1904297 41.7584543,45.1904297 C42.1881439,45.1904297 42.5348201,45.1432296 42.7984933,45.0488281 L42.7984933,48.6621094 C42.9449784,48.323566 43.1557511,48.0607106 43.4308176,47.8735352 C43.705884,47.6863597 44.0159395,47.5927734 44.3609933,47.5927734 C44.7320889,47.5927734 45.0600479,47.6944977 45.3448801,47.8979492 Z M44.9566965,52.1850586 C45.1780517,51.7797831 45.2887277,51.1556032 45.2887277,50.3125 C45.2887277,49.4986938 45.1886311,48.8916036 44.9884347,48.4912109 C44.7882384,48.0908183 44.4814381,47.890625 44.0680246,47.890625 C43.885732,47.890625 43.7107663,47.9386388 43.5431222,48.034668 C43.3754782,48.1306971 43.2257401,48.2722972 43.0939035,48.4594727 C42.9620669,48.6466481 42.8635978,48.872069 42.7984933,49.1357422 L42.7984933,52.2949219 C42.9579993,52.4576831 43.137034,52.5813798 43.3356027,52.6660156 C43.5341714,52.7506515 43.7392475,52.7929688 43.9508371,52.7929688 C44.4000581,52.7929688 44.7353412,52.5903341 44.9566965,52.1850586 Z M51.9224749,47.6977539 C52.060822,47.7677412 52.1690566,47.8629551 52.247182,47.9833984 C52.3253074,48.1038417 52.3643695,48.2356764 52.3643695,48.3789062 C52.3643695,48.5546884 52.3122866,48.7036127 52.2081195,48.8256836 C52.1039523,48.9477545 51.9656073,49.0087891 51.7930804,49.0087891 C51.6465953,49.0087891 51.521271,48.9624028 51.4171038,48.8696289 C51.3129366,48.776855 51.2608538,48.6507169 51.2608538,48.4912109 C51.2608538,48.2731109 51.374785,48.0924486 51.6026507,47.9492188 C51.5570776,47.8841143 51.4870913,47.8515625 51.3926898,47.8515625 C51.1290166,47.8515625 50.8913887,47.9524729 50.6797991,48.1542969 C50.4682095,48.3561208 50.3021956,48.6051417 50.1817523,48.9013672 C50.061309,49.1975926 50.0010882,49.4742826 50.0010882,49.7314453 L50.0010882,51.8505859 C50.0010882,52.1598323 50.088978,52.3738601 50.2647601,52.4926758 C50.4405422,52.6114915 50.705839,52.6708984 51.0606585,52.6708984 L51.0606585,52.8808594 C51.0248511,52.8808594 50.9450992,52.8776042 50.8214007,52.8710938 C50.1573349,52.8515624 49.7243965,52.8417969 49.5225726,52.8417969 C49.3630666,52.8417969 49.0245283,52.8515624 48.5069476,52.8710938 C48.4223117,52.8776042 48.3669738,52.8808594 48.340932,52.8808594 L48.340932,52.6708984 C48.529735,52.6708984 48.6786593,52.6497398 48.7877093,52.6074219 C48.8967593,52.565104 48.9765111,52.4918625 49.0269671,52.3876953 C49.0774231,52.2835281 49.1026507,52.1386728 49.1026507,51.953125 L49.1026507,48.8232422 C49.1026507,48.5139958 49.0464989,48.2893887 48.9341937,48.1494141 C48.8218884,48.0094394 48.6241365,47.9394531 48.340932,47.9394531 L48.340932,47.7294922 C48.5492663,47.7490235 48.75597,47.7587891 48.9610491,47.7587891 C49.3842283,47.7587891 49.7309046,47.7132166 50.0010882,47.6220703 L50.0010882,48.8720703 C50.0759584,48.6637359 50.184193,48.461915 50.3257952,48.2666016 C50.4673975,48.0712881 50.6358529,47.9101569 50.8311663,47.7832031 C51.0264798,47.6562494 51.2331835,47.5927734 51.4512835,47.5927734 C51.6270657,47.5927734 51.7841279,47.6277666 51.9224749,47.6977539 Z M57.5381557,47.8808594 C57.8783267,48.0729176 58.1468787,48.37158 58.3438198,48.7768555 C58.5407609,49.1821309 58.63923,49.6940073 58.63923,50.3125 C58.63923,50.9309927 58.5407609,51.4420553 58.3438198,51.8457031 C58.1468787,52.249351 57.8783267,52.5463858 57.5381557,52.7368164 C57.1979848,52.927247 56.8081775,53.0224609 56.3687221,53.0224609 C55.9292668,53.0224609 55.5394595,52.927247 55.1992886,52.7368164 C54.8591176,52.5463858 54.5905656,52.249351 54.3936245,51.8457031 C54.1966834,51.4420553 54.0982143,50.9309927 54.0982143,50.3125 C54.0982143,49.6940073 54.1966834,49.1821309 54.3936245,48.7768555 C54.5905656,48.37158 54.8591176,48.0729176 55.1992886,47.8808594 C55.5394595,47.6888011 55.9292668,47.5927734 56.3687221,47.5927734 C56.8081775,47.5927734 57.1979848,47.6888011 57.5381557,47.8808594 Z M55.4190151,48.4082031 C55.1862666,48.8183614 55.069894,49.4531207 55.069894,50.3125 C55.069894,51.1686241 55.1862666,51.800942 55.4190151,52.2094727 C55.6517637,52.6180033 55.9683295,52.8222656 56.3687221,52.8222656 C56.7691148,52.8222656 57.0856806,52.6180033 57.3184292,52.2094727 C57.5511777,51.800942 57.6675503,51.1686241 57.6675503,50.3125 C57.6675503,49.4531207 57.5511777,48.8183614 57.3184292,48.4082031 C57.0856806,47.9980448 56.7691148,47.7929688 56.3687221,47.7929688 C55.9683295,47.7929688 55.6517637,47.9980448 55.4190151,48.4082031 Z M68.0439733,47.7294922 L68.0439733,47.9296875 C67.9039986,47.9459636 67.7803019,48.0061844 67.6728795,48.1103516 C67.5654571,48.2145188 67.4726846,48.3886707 67.3945592,48.6328125 L65.9443639,52.9296875 L65.7734655,52.9296875 L64.1865514,48.90625 L62.7607702,52.9296875 L62.5947545,52.9296875 L60.9541295,48.5009766 C60.8629832,48.2666004 60.7685831,48.1144209 60.6709264,48.0444336 C60.5732697,47.9744463 60.4739868,47.9394531 60.3730748,47.9394531 L60.3730748,47.7294922 C60.6530242,47.7718101 60.94599,47.7929688 61.2519811,47.7929688 C61.5482065,47.7929688 61.9811449,47.7718101 62.5508092,47.7294922 L62.5508092,47.9394531 C62.3847928,47.9394531 62.2562133,47.9451497 62.165067,47.956543 C62.0739207,47.9679363 61.9990517,47.9996742 61.9404577,48.0517578 C61.8818636,48.1038414 61.852567,48.188476 61.852567,48.3056641 C61.852567,48.4293626 61.8867464,48.5872386 61.9551061,48.7792969 L62.9560827,51.6552734 L64.3916295,47.6904297 L64.6211217,47.6904297 L66.1543248,51.7382812 L67.0918248,48.8720703 C67.1536741,48.6767568 67.1845983,48.5253912 67.1845983,48.4179688 C67.1845983,48.2584627 67.1268189,48.1412764 67.0112584,48.0664062 C66.895698,47.9915361 66.706084,47.9459636 66.4424108,47.9296875 L66.4424108,47.7294922 C66.793975,47.7490235 67.0739202,47.7587891 67.2822545,47.7587891 C67.57848,47.7587891 67.8323837,47.7490235 68.0439733,47.7294922 Z M76.2089287,47.7392578 L76.2089287,47.9394531 L74.7294365,47.9394531 L74.7294365,51.8115234 C74.7294365,52.1142593 74.7831469,52.3315423 74.8905693,52.4633789 C74.9979917,52.5952155 75.1574953,52.6611328 75.3690849,52.6611328 C75.5774193,52.6611328 75.7548264,52.5781258 75.9013115,52.4121094 C76.0477966,52.2460929 76.1714933,51.9726582 76.2724052,51.5917969 L76.4677177,51.640625 C76.3049565,52.5618536 75.8720181,53.0224609 75.1688896,53.0224609 C74.9442791,53.0224609 74.7587341,52.9956057 74.612249,52.9418945 C74.4657639,52.8881833 74.3355568,52.8043625 74.221624,52.6904297 C74.0783941,52.5439446 73.9774836,52.3640961 73.9188896,52.1508789 C73.8602955,51.9376617 73.830999,51.6503924 73.830999,51.2890625 L73.830999,47.9394531 L72.8690849,47.9394531 L72.8690849,47.7392578 L73.830999,47.7392578 L73.830999,46.2109375 C74.2053498,46.2011718 74.504826,46.1539718 74.7294365,46.0693359 L74.7294365,47.7392578 L76.2089287,47.7392578 Z M80.2499024,47.8735352 C80.5477555,47.6863597 80.8822248,47.5927734 81.2533204,47.5927734 C81.7188175,47.5927734 82.0720041,47.7180977 82.3128907,47.96875 C82.4398445,48.1054694 82.5301756,48.2739248 82.5838868,48.4741211 C82.637598,48.6743174 82.6644532,48.9436832 82.6644532,49.2822266 L82.6644532,51.953125 C82.6644532,52.1386728 82.6896808,52.2835281 82.7401368,52.3876953 C82.7905928,52.4918625 82.8703446,52.565104 82.9793946,52.6074219 C83.0884446,52.6497398 83.2373689,52.6708984 83.426172,52.6708984 L83.426172,52.8808594 C83.4033854,52.8808594 83.349675,52.8776042 83.2650392,52.8710938 C82.7279271,52.8515624 82.3812509,52.8417969 82.2250001,52.8417969 C81.9385403,52.8417969 81.6097676,52.85319 81.238672,52.8759766 L81.1019532,52.8808594 L81.1019532,52.6708984 C81.2679697,52.6708984 81.3981767,52.6497398 81.4925782,52.6074219 C81.5869797,52.565104 81.6561522,52.4918625 81.7000977,52.3876953 C81.7440433,52.2835281 81.7660157,52.1386728 81.7660157,51.953125 L81.7660157,49.0625 C81.7660157,48.8216134 81.7464847,48.6197925 81.707422,48.4570312 C81.6683593,48.29427 81.5894213,48.1624354 81.4706056,48.0615234 C81.3517899,47.9606115 81.1800793,47.9101562 80.9554688,47.9101562 C80.6852852,47.9101562 80.4435884,47.9874667 80.2303712,48.1420898 C80.017154,48.296713 79.85114,48.5115546 79.7323243,48.7866211 C79.6135086,49.0616876 79.5541017,49.3733707 79.5541017,49.7216797 L79.5541017,51.953125 C79.5541017,52.1386728 79.5760741,52.2835281 79.6200196,52.3876953 C79.6639652,52.4918625 79.7323238,52.565104 79.8250977,52.6074219 C79.9178716,52.6497398 80.0472649,52.6708984 80.2132813,52.6708984 L80.2132813,52.8808594 L80.0765626,52.8759766 C79.6957013,52.85319 79.3685561,52.8417969 79.0951173,52.8417969 C78.8086575,52.8417969 78.4570985,52.85319 78.0404298,52.8759766 L77.8939454,52.8808594 L77.8939454,52.6708984 C78.0827484,52.6708984 78.2316727,52.6497398 78.3407227,52.6074219 C78.4497728,52.565104 78.5295246,52.4918625 78.5799806,52.3876953 C78.6304365,52.2835281 78.6556642,52.1386728 78.6556642,51.953125 L78.6556642,46.25 C78.6556642,45.9407537 78.5995124,45.7169603 78.4872071,45.5786133 C78.3749019,45.4402662 78.1771499,45.3710938 77.8939454,45.3710938 L77.8939454,45.1611328 C78.105535,45.1806642 78.3122387,45.1904297 78.5140626,45.1904297 C78.9437522,45.1904297 79.2904285,45.1432296 79.5541017,45.0488281 L79.5541017,48.7890625 C79.7201181,48.3658833 79.9520494,48.0607106 80.2499024,47.8735352 Z M88.7708567,47.6977539 C88.9092037,47.7677412 89.0174383,47.8629551 89.0955637,47.9833984 C89.1736891,48.1038417 89.2127512,48.2356764 89.2127512,48.3789062 C89.2127512,48.5546884 89.1606684,48.7036127 89.0565012,48.8256836 C88.952334,48.9477545 88.8139891,49.0087891 88.6414622,49.0087891 C88.494977,49.0087891 88.3696528,48.9624028 88.2654856,48.8696289 C88.1613184,48.776855 88.1092356,48.6507169 88.1092356,48.4912109 C88.1092356,48.2731109 88.2231667,48.0924486 88.4510325,47.9492188 C88.4054593,47.8841143 88.335473,47.8515625 88.2410715,47.8515625 C87.9773983,47.8515625 87.7397705,47.9524729 87.5281809,48.1542969 C87.3165913,48.3561208 87.1505773,48.6051417 87.030134,48.9013672 C86.9096907,49.1975926 86.84947,49.4742826 86.84947,49.7314453 L86.84947,51.8505859 C86.84947,52.1598323 86.9373597,52.3738601 87.1131418,52.4926758 C87.288924,52.6114915 87.5542208,52.6708984 87.9090403,52.6708984 L87.9090403,52.8808594 C87.8732328,52.8808594 87.793481,52.8776042 87.6697825,52.8710938 C87.0057166,52.8515624 86.5727783,52.8417969 86.3709543,52.8417969 C86.2114483,52.8417969 85.8729101,52.8515624 85.3553293,52.8710938 C85.2706935,52.8776042 85.2153555,52.8808594 85.1893137,52.8808594 L85.1893137,52.6708984 C85.3781167,52.6708984 85.527041,52.6497398 85.6360911,52.6074219 C85.7451411,52.565104 85.8248929,52.4918625 85.8753489,52.3876953 C85.9258049,52.2835281 85.9510325,52.1386728 85.9510325,51.953125 L85.9510325,48.8232422 C85.9510325,48.5139958 85.8948807,48.2893887 85.7825754,48.1494141 C85.6702702,48.0094394 85.4725183,47.9394531 85.1893137,47.9394531 L85.1893137,47.7294922 C85.3976481,47.7490235 85.6043518,47.7587891 85.8094309,47.7587891 C86.2326101,47.7587891 86.5792863,47.7132166 86.84947,47.6220703 L86.84947,48.8720703 C86.9243401,48.6637359 87.0325747,48.461915 87.174177,48.2666016 C87.3157793,48.0712881 87.4842346,47.9101569 87.6795481,47.7832031 C87.8748616,47.6562494 88.0815652,47.5927734 88.2996653,47.5927734 C88.4754474,47.5927734 88.6325096,47.6277666 88.7708567,47.6977539 Z M94.7332172,52.3364258 C94.5623179,52.5398773 94.3491039,52.7050775 94.0935688,52.8320312 C93.8380336,52.958985 93.5523919,53.0224609 93.2366352,53.0224609 C92.7613724,53.0224609 92.3504064,52.9142263 92.003725,52.6977539 C91.6570436,52.4812815 91.3925605,52.1769225 91.210268,51.784668 C91.0279754,51.3924134 90.9368305,50.9407578 90.9368305,50.4296875 C90.9368305,49.8502575 91.029603,49.3473329 91.2151508,48.9208984 C91.4006986,48.494464 91.663554,48.1665051 92.003725,47.9370117 C92.343896,47.7075184 92.7418412,47.5927734 93.1975727,47.5927734 C93.796534,47.5927734 94.2579552,47.7742495 94.58185,48.137207 C94.9057448,48.5001646 95.0676898,49.0511031 95.0676898,49.7900391 L91.9426898,49.7900391 C91.9199033,49.9690764 91.9085102,50.1822904 91.9085102,50.4296875 C91.9085102,50.8691428 91.9809378,51.2532536 92.1257953,51.5820312 C92.2706528,51.9108089 92.4602668,52.1630851 92.694643,52.3388672 C92.9290191,52.5146493 93.1764125,52.6025391 93.4368305,52.6025391 C94.1074067,52.6025391 94.5973107,52.2688835 94.906557,51.6015625 L95.1067523,51.6796875 C95.028627,51.9140637 94.9041165,52.1329742 94.7332172,52.3364258 Z M92.5921039,47.980957 C92.419577,48.1127936 92.2747217,48.3146145 92.1575336,48.5864258 C92.0403455,48.858237 91.9638489,49.1959615 91.9280414,49.5996094 L94.1057758,49.5996094 C94.1187967,49.2675765 94.0911277,48.9632175 94.022768,48.6865234 C93.9544083,48.4098293 93.8469875,48.190105 93.7005023,48.0273438 C93.5540172,47.8645825 93.373355,47.7832031 93.1585102,47.7832031 C92.953431,47.7832031 92.7646308,47.8491204 92.5921039,47.980957 Z M100.077902,47.6928711 C100.286236,47.7596032 100.448995,47.8515619 100.566183,47.96875 C100.719179,48.1250008 100.824158,48.3064768 100.881125,48.5131836 C100.938091,48.7198904 100.966574,49.005532 100.966574,49.3701172 L100.966574,52.1484375 C100.966574,52.314454 100.990174,52.4348955 101.037375,52.5097656 C101.084575,52.5846358 101.163513,52.6220703 101.274191,52.6220703 C101.355572,52.6220703 101.430441,52.6041668 101.4988,52.5683594 C101.56716,52.5325519 101.642029,52.4804691 101.72341,52.4121094 L101.835714,52.5830078 C101.718526,52.6708989 101.620871,52.7392576 101.542746,52.7880859 C101.46462,52.8369143 101.375103,52.8759764 101.274191,52.9052734 C101.173279,52.9345705 101.056093,52.9492188 100.922628,52.9492188 C100.600361,52.9492188 100.376568,52.8686531 100.251242,52.7075195 C100.125916,52.5463859 100.063253,52.3307305 100.063253,52.0605469 C99.86794,52.3828141 99.6335673,52.6114902 99.3601285,52.746582 C99.0866896,52.8816739 98.8083721,52.9492188 98.5251675,52.9492188 C98.2940466,52.9492188 98.0824602,52.9093428 97.8904019,52.8295898 C97.6983437,52.7498368 97.5445366,52.6261402 97.4289761,52.4584961 C97.3134157,52.290852 97.2556363,52.081707 97.2556363,51.8310547 C97.2556363,51.5771472 97.3174846,51.360678 97.4411832,51.1816406 C97.5648817,51.0026033 97.7390336,50.845541 97.9636441,50.7104492 C98.1882546,50.5753574 98.4893584,50.4280607 98.8669644,50.2685547 L99.0622769,50.1855469 C99.3031635,50.0911454 99.4895223,50.0113936 99.6213589,49.9462891 C99.7531955,49.8811846 99.8598025,49.8055017 99.9411832,49.7192383 C100.022564,49.6329748 100.063253,49.5328782 100.063253,49.4189453 L100.063253,48.7988281 C100.063253,48.4114564 99.9826879,48.1469734 99.8215543,48.0053711 C99.6604206,47.8637688 99.4317445,47.7929688 99.1355191,47.7929688 C98.6635115,47.7929688 98.3331112,47.9117827 98.1443082,48.1494141 C98.2777724,48.1819663 98.3892621,48.2527664 98.4787808,48.3618164 C98.5682995,48.4708664 98.6130582,48.6035148 98.6130582,48.7597656 C98.6130582,48.9290373 98.5601616,49.0616857 98.4543668,49.1577148 C98.348572,49.253744 98.206158,49.3017578 98.0271207,49.3017578 C97.857849,49.3017578 97.7252006,49.2447922 97.6291714,49.1308594 C97.5331423,49.0169265 97.4851285,48.8671884 97.4851285,48.6816406 C97.4851285,48.4212227 97.6413769,48.1835948 97.9538785,47.96875 C98.1166397,47.8613276 98.3176468,47.7718103 98.5569058,47.7001953 C98.7961648,47.6285804 99.0622754,47.5927734 99.3552457,47.5927734 C99.6286845,47.5927734 99.8695675,47.626139 100.077902,47.6928711 Z M99.8191128,50.0390625 C99.70518,50.104167 99.4675522,50.2246085 99.1062222,50.4003906 C98.914164,50.4915369 98.7514052,50.5851232 98.617941,50.6811523 C98.4844768,50.7771815 98.3705456,50.9065747 98.2761441,51.0693359 C98.1817426,51.2320972 98.1345425,51.4322905 98.1345425,51.6699219 C98.1345425,51.9596369 98.207784,52.1785474 98.3542691,52.3266602 C98.5007542,52.4747729 98.6944372,52.5488281 98.9353238,52.5488281 C99.3780343,52.5488281 99.7540071,52.296552 100.063253,51.7919922 L100.063253,49.8291016 C100.014425,49.9039717 99.9330457,49.973958 99.8191128,50.0390625 Z M108.186259,52.4633789 C108.298564,52.601726 108.496316,52.6708984 108.77952,52.6708984 L108.77952,52.8808594 C108.567931,52.861328 108.361227,52.8515625 108.159403,52.8515625 C107.729713,52.8515625 107.383037,52.8987625 107.119364,52.9931641 L107.119364,52.1044922 C106.995665,52.4039729 106.814189,52.6318352 106.57493,52.7880859 C106.335671,52.9443367 106.043519,53.0224609 105.698466,53.0224609 C105.275286,53.0224609 104.910707,52.9215505 104.604716,52.7197266 C104.298724,52.5179026 104.063538,52.2151713 103.899149,51.8115234 C103.73476,51.4078756 103.654195,50.9082061 103.65745,50.3125 C103.654195,49.7298148 103.755105,49.2334005 103.960184,48.8232422 C104.165263,48.4130839 104.439512,48.1054698 104.782938,47.9003906 C105.126364,47.6953115 105.504779,47.5927734 105.918192,47.5927734 C106.1721,47.5927734 106.404845,47.6407873 106.616434,47.7368164 C106.828024,47.8328455 106.995665,47.9817698 107.119364,48.1835938 L107.119364,46.2402344 C107.119364,45.930988 107.063212,45.7071947 106.950907,45.5688477 C106.838602,45.4305006 106.64085,45.3613281 106.357645,45.3613281 L106.357645,45.1513672 C106.569235,45.1708985 106.775938,45.1806641 106.977762,45.1806641 C107.407452,45.1806641 107.754128,45.133464 108.017801,45.0390625 L108.017801,51.7919922 C108.017801,52.1012385 108.073953,52.3250319 108.186259,52.4633789 Z M106.472391,52.5878906 C106.627014,52.4999996 106.760477,52.3689787 106.872782,52.1948242 C106.985087,52.0206697 107.06728,51.8115247 107.119364,51.5673828 L107.119364,48.59375 C106.933816,48.0794245 106.561099,47.8222656 106.0012,47.8222656 C105.731016,47.8222656 105.492575,47.9142243 105.285868,48.0981445 C105.079161,48.2820647 104.917216,48.5603823 104.800028,48.9331055 C104.68284,49.3058287 104.625874,49.7656223 104.62913,50.3125 C104.625874,51.1132853 104.738992,51.714679 104.968485,52.1166992 C105.197978,52.5187195 105.53733,52.7197266 105.986551,52.7197266 C106.155823,52.7197266 106.317768,52.6757817 106.472391,52.5878906 Z M112.061217,45.3173828 C112.158873,45.3759769 112.236998,45.4541011 112.295592,45.5517578 C112.354186,45.6494146 112.383482,45.7552078 112.383482,45.8691406 C112.383482,45.9830735 112.354186,46.0896805 112.295592,46.1889648 C112.236998,46.2882492 112.158873,46.3663734 112.061217,46.4233398 C111.96356,46.4803063 111.857767,46.5087891 111.743834,46.5087891 C111.629901,46.5087891 111.523294,46.4803063 111.42401,46.4233398 C111.324725,46.3663734 111.246601,46.2882492 111.189635,46.1889648 C111.132668,46.0896805 111.104185,45.9830735 111.104185,45.8691406 C111.104185,45.7552078 111.132668,45.6494146 111.189635,45.5517578 C111.246601,45.4541011 111.324725,45.3759769 111.42401,45.3173828 C111.523294,45.2587888 111.629901,45.2294922 111.743834,45.2294922 C111.857767,45.2294922 111.96356,45.2587888 112.061217,45.3173828 Z M112.337096,52.3876953 C112.387552,52.4918625 112.467303,52.565104 112.576353,52.6074219 C112.685403,52.6497398 112.834328,52.6708984 113.023131,52.6708984 L113.023131,52.8808594 L112.871764,52.8759766 C112.461605,52.85319 112.108419,52.8417969 111.812193,52.8417969 C111.515968,52.8417969 111.162781,52.85319 110.752623,52.8759766 L110.601256,52.8808594 L110.601256,52.6708984 C110.790059,52.6708984 110.938983,52.6497398 111.048033,52.6074219 C111.157083,52.565104 111.236835,52.4918625 111.287291,52.3876953 C111.337747,52.2835281 111.362974,52.1386728 111.362974,51.953125 L111.362974,48.8232422 C111.362974,48.5139958 111.306823,48.2893887 111.194517,48.1494141 C111.082212,48.0094394 110.88446,47.9394531 110.601256,47.9394531 L110.601256,47.7294922 C110.80959,47.7490235 111.016294,47.7587891 111.221373,47.7587891 C111.644552,47.7587891 111.991228,47.7132166 112.261412,47.6220703 L112.261412,51.953125 C112.261412,52.1386728 112.28664,52.2835281 112.337096,52.3876953 Z M119.283343,47.96875 C119.407041,48.1054694 119.495745,48.2739248 119.549456,48.4741211 C119.603167,48.6743174 119.630022,48.9436832 119.630022,49.2822266 L119.630022,51.953125 C119.630022,52.1386728 119.65525,52.2835281 119.705706,52.3876953 C119.756162,52.4918625 119.835914,52.565104 119.944964,52.6074219 C120.054014,52.6497398 120.202938,52.6708984 120.391741,52.6708984 L120.391741,52.8808594 L120.245257,52.8759766 C119.828588,52.85319 119.477029,52.8417969 119.190569,52.8417969 C118.91713,52.8417969 118.589985,52.85319 118.209124,52.8759766 L118.072405,52.8808594 L118.072405,52.6708984 C118.238422,52.6708984 118.367815,52.6497398 118.460589,52.6074219 C118.553363,52.565104 118.621721,52.4918625 118.665667,52.3876953 C118.709613,52.2835281 118.731585,52.1386728 118.731585,51.953125 L118.731585,49.0625 C118.731585,48.8216134 118.712868,48.6197925 118.675433,48.4570312 C118.637998,48.29427 118.559873,48.1624354 118.441058,48.0615234 C118.322242,47.9606115 118.148904,47.9101562 117.921038,47.9101562 C117.647599,47.9101562 117.404275,47.9899081 117.191058,48.1494141 C116.97784,48.3089201 116.81264,48.5278306 116.695452,48.8061523 C116.578264,49.084474 116.519671,49.392902 116.519671,49.7314453 L116.519671,51.953125 C116.519671,52.1386728 116.541643,52.2835281 116.585589,52.3876953 C116.629534,52.4918625 116.698707,52.565104 116.793108,52.6074219 C116.88751,52.6497398 117.017717,52.6708984 117.183733,52.6708984 L117.183733,52.8808594 L117.047015,52.8759766 C116.675919,52.85319 116.347146,52.8417969 116.060687,52.8417969 C115.774227,52.8417969 115.422668,52.85319 115.005999,52.8759766 L114.859515,52.8808594 L114.859515,52.6708984 C115.048318,52.6708984 115.197242,52.6497398 115.306292,52.6074219 C115.415342,52.565104 115.495094,52.4918625 115.54555,52.3876953 C115.596006,52.2835281 115.621233,52.1386728 115.621233,51.953125 L115.621233,48.8232422 C115.621233,48.5139958 115.565082,48.2893887 115.452776,48.1494141 C115.340471,48.0094394 115.142719,47.9394531 114.859515,47.9394531 L114.859515,47.7294922 C115.067849,47.7490235 115.274553,47.7587891 115.479632,47.7587891 C115.902811,47.7587891 116.249487,47.7132166 116.519671,47.6220703 L116.519671,48.7988281 C116.685687,48.3756489 116.917619,48.0688486 117.215472,47.878418 C117.513325,47.6879873 117.849422,47.5927734 118.223772,47.5927734 C118.68927,47.5927734 119.042456,47.7180977 119.283343,47.96875 Z M126.546973,52.0019531 C126.763445,52.1484382 126.87168,52.3844385 126.87168,52.7099609 C126.87168,53.0289729 126.768328,53.3463526 126.561621,53.6621094 C126.354914,53.9778662 126.04079,54.2399078 125.619238,54.4482422 C125.197687,54.6565766 124.682555,54.7607422 124.073828,54.7607422 C123.725519,54.7607422 123.39756,54.725749 123.089942,54.6557617 C122.782323,54.5857744 122.534116,54.4816088 122.345313,54.3432617 C122.15651,54.2049147 122.06211,54.0380869 122.06211,53.8427734 C122.06211,53.6149077 122.181737,53.3951833 122.420996,53.1835938 C122.660255,52.9720042 122.958918,52.7848315 123.316992,52.6220703 L123.282813,52.6220703 C123.028905,52.6220703 122.798601,52.5683599 122.591895,52.4609375 C122.385188,52.3535151 122.281836,52.1533218 122.281836,51.8603516 C122.281836,51.6324858 122.37705,51.4160167 122.567481,51.2109375 C122.757911,51.0058583 123.07936,50.8007823 123.531836,50.5957031 C123.238866,50.4817703 123.011004,50.3059908 122.848242,50.0683594 C122.685481,49.830728 122.604102,49.5312518 122.604102,49.1699219 C122.604102,48.6425755 122.772557,48.2478854 123.109473,47.9858398 C123.446389,47.7237943 123.893161,47.5927734 124.449805,47.5927734 C124.706968,47.5927734 124.942968,47.62207 125.157813,47.6806641 C125.226172,47.3095685 125.343359,47.0133475 125.509375,46.7919922 C125.688413,46.5706369 125.916275,46.4599609 126.192969,46.4599609 C126.358985,46.4599609 126.488379,46.5087886 126.581153,46.6064453 C126.673926,46.7041021 126.720313,46.8294263 126.720313,46.9824219 C126.720313,47.1191413 126.67474,47.2330725 126.583594,47.3242188 C126.492448,47.415365 126.378516,47.4609375 126.241797,47.4609375 C126.072525,47.4609375 125.950456,47.4096685 125.875586,47.3071289 C125.800716,47.2045893 125.745378,47.0458995 125.70957,46.8310547 C125.611914,46.9189458 125.522396,47.0817045 125.441016,47.3193359 C125.388932,47.4951181 125.354753,47.633463 125.338477,47.734375 C125.641213,47.8450526 125.877213,48.0208321 126.046485,48.2617188 C126.215756,48.5026054 126.300391,48.8053367 126.300391,49.1699219 C126.300391,49.5247414 126.220639,49.8201486 126.061133,50.0561523 C125.901627,50.2921561 125.68353,50.4671218 125.406836,50.5810547 C125.130142,50.6949875 124.811135,50.7519531 124.449805,50.7519531 C124.173111,50.7519531 123.927345,50.721029 123.7125,50.6591797 C123.442317,50.8024096 123.234799,50.935058 123.089942,51.0571289 C122.945084,51.1791998 122.872656,51.3102207 122.872656,51.4501953 C122.872656,51.5608729 122.910091,51.6438799 122.984961,51.6992188 C123.059831,51.7545576 123.1819,51.7822266 123.351172,51.7822266 L125.699805,51.7822266 C126.048114,51.7822266 126.3305,51.855468 126.546973,52.0019531 Z M123.773535,48.0883789 C123.618912,48.3015961 123.541602,48.6621068 123.541602,49.1699219 C123.541602,49.6777369 123.618912,50.0382476 123.773535,50.2514648 C123.928158,50.4646821 124.153579,50.5712891 124.449805,50.5712891 C124.749286,50.5712891 124.976334,50.4654958 125.130957,50.2539062 C125.28558,50.0423167 125.362891,49.6809921 125.362891,49.1699219 C125.362891,48.6588516 125.28558,48.2975271 125.130957,48.0859375 C124.976334,47.8743479 124.749286,47.7685547 124.449805,47.7685547 C124.153579,47.7685547 123.928158,47.8751617 123.773535,48.0883789 Z M125.211524,54.4311523 C125.494728,54.3253575 125.727473,54.1658539 125.909766,53.9526367 C126.092058,53.7394195 126.183203,53.4814468 126.183203,53.1787109 C126.183203,53.048502 126.161231,52.9435225 126.117285,52.8637695 C126.07334,52.7840165 125.996029,52.7237958 125.885352,52.6831055 C125.774674,52.6424152 125.620053,52.6220703 125.421485,52.6220703 L123.561133,52.6220703 C123.349543,52.7294927 123.183529,52.8767894 123.063086,53.0639648 C122.942643,53.2511403 122.882422,53.4407542 122.882422,53.6328125 C122.882422,53.8476573 122.954036,54.026692 123.097266,54.1699219 C123.240496,54.3131518 123.424413,54.418945 123.649024,54.4873047 C123.873634,54.5556644 124.104752,54.5898438 124.342383,54.5898438 C124.638608,54.5898438 124.928319,54.5369471 125.211524,54.4311523 Z" id="eyebrow-threading" fill="#181709"></path>
        </g>
    </g>
</svg>
